<svg width="18" height="18" viewBox="0 0 18 18" fill="none" xmlns="http://www.w3.org/2000/svg">
<rect width="18" height="18" rx="9" fill="#22A59B"/>
<g clip-path="url(#clip0_512_6519)">
<path d="M8.99995 12.3328C7.15915 12.3328 5.66688 10.8405 5.66688 8.99969C5.66688 7.15889 7.15915 5.66663 8.99995 5.66663C10.8407 5.66663 12.333 7.15889 12.333 8.99969C12.333 10.8405 10.8407 12.3328 8.99995 12.3328Z" stroke="white" stroke-width="0.666613" stroke-linecap="round" stroke-linejoin="round"/>
<path d="M12.333 8.99951H5.66688" stroke="white" stroke-width="0.666613" stroke-linecap="round" stroke-linejoin="round"/>
<path d="M9.00076 5.66663C8.16707 6.57934 7.69328 7.7638 7.66753 8.99969C7.69328 10.2356 8.16707 11.42 9.00076 12.3328C9.83445 11.42 10.3082 10.2356 10.334 8.99969C10.3082 7.7638 9.83445 6.57934 9.00076 5.66663Z" stroke="white" stroke-width="0.666613" stroke-linecap="round" stroke-linejoin="round"/>
</g>
<defs>
<clipPath id="clip0_512_6519">
<rect width="7.99935" height="7.99935" fill="white" transform="matrix(-1 0 0 1 13 5.00031)"/>
</clipPath>
</defs>
</svg>
