<svg width="18" height="16" viewBox="0 0 18 16" fill="none" xmlns="http://www.w3.org/2000/svg">
<path d="M7.48129 1.50788L0.974216 12.3709C0.840055 12.6033 0.769068 12.8667 0.768317 13.135C0.767565 13.4033 0.837076 13.6671 0.969934 13.9001C1.10279 14.1332 1.29437 14.3275 1.52559 14.4635C1.75682 14.5996 2.01965 14.6727 2.28792 14.6757H15.3021C15.5703 14.6727 15.8332 14.5996 16.0644 14.4635C16.2956 14.3275 16.4872 14.1332 16.6201 13.9001C16.7529 13.6671 16.8224 13.4033 16.8217 13.135C16.8209 12.8667 16.7499 12.6033 16.6158 12.3709L10.1087 1.50788C9.97175 1.28209 9.77891 1.09542 9.5488 0.965865C9.31869 0.83631 9.05907 0.76825 8.795 0.76825C8.53092 0.76825 8.2713 0.83631 8.04119 0.965865C7.81108 1.09542 7.61825 1.28209 7.48129 1.50788Z" stroke="white" stroke-width="1.5365" stroke-linecap="round" stroke-linejoin="round"/>
</svg>
