<svg width="9" height="12" viewBox="0 0 9 12" fill="none" xmlns="http://www.w3.org/2000/svg">
<path d="M7.58333 3.79167H7.04167V2.70833C7.04167 1.21333 5.82833 0 4.33333 0C2.83833 0 1.625 1.21333 1.625 2.70833V3.79167H1.08333C0.4875 3.79167 0 4.27917 0 4.875V10.2917C0 10.8875 0.4875 11.375 1.08333 11.375H7.58333C8.17917 11.375 8.66667 10.8875 8.66667 10.2917V4.875C8.66667 4.27917 8.17917 3.79167 7.58333 3.79167ZM2.70833 2.70833C2.70833 1.80917 3.43417 1.08333 4.33333 1.08333C5.2325 1.08333 5.95833 1.80917 5.95833 2.70833V3.79167H2.70833V2.70833ZM7.58333 10.2917H1.08333V4.875H7.58333V10.2917ZM4.33333 8.66667C4.92917 8.66667 5.41667 8.17917 5.41667 7.58333C5.41667 6.9875 4.92917 6.5 4.33333 6.5C3.7375 6.5 3.25 6.9875 3.25 7.58333C3.25 8.17917 3.7375 8.66667 4.33333 8.66667Z" fill="black"/>
</svg>
