<svg width="20" height="20" viewBox="0 0 20 20" fill="none" xmlns="http://www.w3.org/2000/svg">
<path d="M1.00048 9.5001C0.997036 10.8199 1.3054 12.1219 1.90046 13.3C2.60601 14.7117 3.69067 15.8992 5.03295 16.7292C6.37522 17.5593 7.9221 17.9993 9.50031 17.9999C10.8202 18.0034 12.1221 17.695 13.3002 17.1L19.0001 18.9999L17.1002 13.3C17.6952 12.1219 18.0036 10.8199 18.0001 9.5001C17.9995 7.92189 17.5595 6.37502 16.7294 5.03274C15.8994 3.69047 14.712 2.60581 13.3002 1.90025C12.1221 1.3052 10.8202 0.996831 9.50031 1.00027H9.00032C6.91601 1.11526 4.94736 1.99501 3.47129 3.47108C1.99522 4.94715 1.11547 6.91581 1.00048 9.00011V9.5001Z" stroke="#127EB5" stroke-width="1.28569" stroke-linecap="round" stroke-linejoin="round"/>
</svg>
