<svg width="14" height="14" viewBox="0 0 14 14" fill="none" xmlns="http://www.w3.org/2000/svg">
<path d="M12.4625 6.23118C12.4647 7.09688 12.2625 7.95088 11.8722 8.7236C11.4094 9.64957 10.6979 10.4284 9.81751 10.9729C8.93709 11.5173 7.92248 11.8059 6.88731 11.8063C6.0216 11.8086 5.16761 11.6063 4.39488 11.216L0.65625 12.4622L1.90246 8.7236C1.51216 7.95088 1.30989 7.09688 1.31215 6.23118C1.31255 5.19601 1.60115 4.18139 2.14562 3.30098C2.69008 2.42056 3.46892 1.70912 4.39488 1.24634C5.16761 0.856029 6.0216 0.653767 6.88731 0.656025H7.21526C8.58238 0.731448 9.87365 1.30849 10.8418 2.27666C11.81 3.24484 12.387 4.5361 12.4625 5.90323V6.23118Z" stroke="white" stroke-width="1.3118" stroke-linecap="round" stroke-linejoin="round"/>
</svg>
