<svg class="followpath" width="1272" height="1015" viewBox="0 0 1272 1015" fill="none" xmlns="http://www.w3.org/2000/svg">
<path d="M1228.62 135.895C1225.6 135.966 1222.57 136.037 1167.58 140.743C1112.58 145.45 1005.71 154.789 945.321 161.161C884.928 167.533 874.252 170.656 865.464 173.948C849.783 179.822 837.661 189.233 826.643 200.143C815.467 211.209 803.97 233.428 784.009 277.653C770.911 306.671 754.027 350.028 742.299 377.356C726.003 415.331 713.292 434.329 700.832 451.187C689.227 466.887 674.406 479.101 659.264 490.287C651.662 495.903 643.165 499.878 625.655 505.122C608.145 510.365 581.608 516.37 561.39 519.385C528.319 524.317 508.733 521.253 498.561 520.642C480.651 519.566 464.93 556.543 437.516 575.199C429.535 580.63 418.508 582.6 402.322 585.522C364.573 592.336 333.489 592.088 317.096 588.524C301.138 585.055 287.744 574.419 275.594 562.783C262.998 550.718 256.923 531.813 251.938 511.667C246.606 490.115 247.991 465.987 249.762 442.088C251.526 418.263 262.848 397.297 274.423 379.659C284.957 363.606 300.969 352.58 318.186 342.907C327.038 337.933 337.453 335.402 383.434 332.151C429.414 328.901 510.984 325.666 574.333 325.041C637.682 324.415 680.338 326.496 706.342 326.857C740.42 327.33 756.541 320.344 771.953 310.891C788.269 300.883 798.148 282.563 805.814 263.928C813.615 244.962 816.371 215.556 819.215 184.094C821.005 164.293 818.75 153.305 814.747 146.675C810.645 139.882 797.641 140.105 783.448 140.042C767.022 139.968 742.981 153.089 713.315 176.239C698.114 188.1 685.451 203.618 676.194 216.44C660.253 238.518 654.582 262.439 649.803 294.401C646.804 314.451 646.424 342.757 646.71 365.527C646.995 388.297 648.925 404.797 657.61 443.632C666.295 482.467 681.678 543.138 689.915 577.342C699.532 617.272 699.429 627.721 698.842 635.776C697.632 652.376 670.93 668.715 641.215 682.397C625.391 689.683 607.267 688.362 591.871 686.556C577.671 684.891 568.832 672.873 563.261 661.021C557.229 648.188 559.217 632.578 562.444 619.282C565.48 606.774 580.331 599.964 593.701 594.013C606.26 588.422 618.833 588.254 629.136 589.963C639.596 591.699 645.796 606.817 651.045 624.425C656.941 644.203 656.298 668.974 654.698 695.865C653.034 723.82 640.018 748.976 625.874 769.877C612.745 789.278 593.49 800.246 576.86 808.563C561.916 816.037 546.55 816.873 533.673 817.156C527.48 817.292 522.037 815.118 517.702 810.494C507.939 800.079 506.381 776.237 506.669 745.256C506.825 728.453 510.761 709.593 516.808 689.657C522.855 669.72 531.856 649.314 543.511 628.957C555.166 608.6 569.202 588.912 584.964 570.907C600.726 552.902 617.789 537.176 636.26 524.219C654.731 511.262 674.094 501.549 695.099 493.939C716.103 486.328 738.163 481.114 772.425 477.946C806.688 474.778 852.484 473.814 927.042 479.008C1001.6 484.202 1103.53 495.583 1160.33 501.415C1217.14 507.247 1225.72 507.186 1233.43 506.625C1247.75 505.583 1258.24 501.109 1264.78 494.056C1272.08 486.171 1270.99 471.451 1270.46 458.16C1269.97 446.213 1263.21 437.952 1258.35 432.891C1256.26 430.713 1254.36 429.922 1252.97 430.6C1251.59 431.278 1250.63 433.601 1247.15 462.337C1243.67 491.072 1237.69 546.148 1230.3 587.275C1222.91 628.401 1214.29 653.907 1203.26 678.127C1192.24 702.347 1179.08 724.508 1164.62 745.167C1150.16 765.826 1134.81 784.312 1119.15 800.107C1103.48 815.902 1087.98 828.446 1071.94 838.646C1055.9 848.846 1039.79 856.322 1023.06 862.14C1006.33 867.957 989.458 871.89 971.893 874.41C954.328 876.931 936.576 877.919 919.063 877.516C901.549 877.112 884.812 875.285 868.324 870.977C851.837 866.669 836.106 859.934 798.98 837.392C761.854 814.849 703.809 776.702 668.509 754.842C633.209 732.981 622.414 728.564 611.839 725.134C591.494 718.536 572.202 716.422 555.278 716.1C539.509 715.799 524.677 722.952 510.018 733.629C502.03 739.447 494.999 748.685 471.383 783.089C447.767 817.493 408.309 877.45 383.452 912.7C358.595 947.951 349.535 956.679 333.837 967.316C318.138 977.953 296.077 990.233 271.917 998.59C247.757 1006.95 222.168 1011.01 202.98 1013.01C171.898 1016.25 148.665 1011.15 128.268 1001.47C117.911 996.555 110.374 986.522 102.941 974.256C95.5084 961.99 89.1334 946.489 81.9168 917.302C74.7001 888.116 66.835 845.714 61.8264 801.996C56.8179 758.278 54.9042 714.53 55.1019 687.667C55.2995 660.804 57.6663 652.151 63.0059 643.673C74.4024 625.578 97.9613 610.903 126.62 594.551C142.136 585.697 160.664 577.599 181.649 569.445C202.633 561.291 225.778 553.808 263.217 545.805C300.655 537.803 351.687 529.507 423.151 525.342C494.614 521.178 584.962 521.395 636.367 520.942C687.772 520.488 697.496 519.358 707.834 515.803C729.627 508.309 751.801 489.322 775.509 465.993C787.707 453.99 798.311 439.765 808.013 425.14C817.715 410.515 825.699 395.439 831.897 377.652C838.096 359.864 842.266 339.821 845.119 318.12C847.971 296.418 849.379 273.665 849.094 251.781C848.808 229.898 846.787 209.574 842.496 191C838.206 172.427 831.707 156.221 823.448 142.143C807.616 115.158 783.534 97.2613 759.18 83.8739C734.963 70.562 705.526 68.4453 677.339 66.1966C650.026 64.0176 623.23 70.1841 597.124 79.6434C583.552 84.5611 570.828 93.4633 557.435 103.712C544.043 113.961 530.753 126.244 517.713 140.904C504.674 155.565 492.288 172.232 481.584 189.404C470.881 206.576 462.235 223.748 455.816 241.469C449.397 259.19 445.467 276.939 442.753 294.94C440.039 312.941 438.661 330.656 438.693 347.75C438.725 364.844 440.208 380.78 444.758 397.393C449.308 414.006 456.881 430.812 484.769 469.59C512.658 508.368 560.634 568.608 587.868 603.732C620.961 646.412 627.27 662.905 630.465 678.155C633.719 693.685 630.638 709.406 623.684 724.159C615.453 741.62 591.047 753.728 564.016 766.751C549.996 773.505 533.987 777.496 517.483 781.069C500.98 784.642 484.117 786.894 466.476 788.196C448.835 789.499 430.928 789.783 412.827 788.325C394.727 786.868 376.975 783.661 359.488 777.742C342.001 771.823 325.316 763.29 309.215 753.097C293.114 742.904 278.103 731.31 264.57 719.13C251.038 706.951 239.439 694.538 229.469 681.621C219.498 668.705 211.507 655.662 205.06 641.53C198.613 627.398 193.953 612.572 190.682 586.498C187.412 560.424 185.672 523.553 185.955 495.432C186.237 467.311 188.595 449.058 193.648 431.617C198.702 414.176 206.379 398.1 216.116 383.899C225.853 369.698 237.418 357.859 250.702 347.539C263.987 337.219 278.641 328.777 294.955 321.455C311.269 314.133 328.798 308.186 346.602 303.672C364.405 299.158 381.95 296.258 399.417 294.469C416.884 292.68 433.74 292.089 450.868 292.522C467.996 292.955 484.885 294.429 501.939 298.245C518.993 302.062 535.7 308.176 551.697 316.553C567.695 324.931 582.475 335.388 601.554 352.139C620.632 368.891 643.562 391.621 658.01 404.986C676.967 422.522 690.286 427.018 705.779 430.292C723.261 433.987 743.7 431.906 764.524 428.158C785.61 424.363 804.556 407.86 831.105 379.329C848.877 360.23 871.839 328.599 888.132 309.446C911.045 282.512 929.552 273.521 947.503 268.046C965.067 262.688 983.843 267.629 1001.29 273.726C1020.14 280.317 1035.82 301.03 1052.53 325.206C1061.35 337.978 1068.08 353.598 1077.45 378.716C1086.82 403.835 1097.92 438.445 1104.59 462.86C1114.76 500.052 1115.44 524.482 1115.08 544.649C1114.76 563.096 1106.04 578.865 1093.87 592.051C1081.04 605.949 1059.82 611.652 1037.88 616.951C1014.09 622.694 985.979 622.388 955.567 620.854C939.85 620.061 923.855 615.513 859.318 586.518C794.781 557.522 682.264 503.265 599.087 467.389C515.911 431.513 465.486 415.661 434.718 406.811C394.717 395.304 377.215 394.948 363.369 395.462C350.936 395.925 340.414 405.168 330.486 419.288C324.73 427.473 320.72 439.764 316.509 455.627C312.297 471.49 308.825 491.073 307.213 528.366C305.602 565.66 305.957 620.07 307.56 657.548C309.163 695.025 312.004 713.921 315.21 730.089C321.007 759.316 329.807 780.728 339.064 794.916C343.246 801.325 349.454 803.835 356.728 805.446C372.637 808.97 395.47 800.853 423.708 783.799C439.443 774.296 454.72 758.054 496.202 703.451C537.684 648.847 604.062 555.093 642.805 502.809C681.547 450.524 690.644 442.552 699.769 435.719C717.213 422.658 736.258 414.07 755.239 407.664C773.929 401.357 795.27 402.023 817.534 403.167C841.103 404.377 864.593 415.888 886.602 430.448C908.412 444.878 920.418 466.719 929.058 485.665C937.685 504.582 937.204 526.711 936.584 547.098C935.995 566.446 922.958 583.292 909.508 597.952C897.081 611.495 879.12 618.548 859.972 624.988C838.921 632.067 815.173 631.698 792.57 629.285C770.183 626.896 749.893 613.27 730.173 598.998C720.101 591.709 711.199 582.604 679.889 544.606C648.578 506.608 595.461 439.553 559.869 397.754C524.278 355.954 507.822 341.441 495.008 331.306C474.25 314.888 455.138 306.619 416.141 296.955C386.891 289.707 337.223 283.102 299.45 278.76C261.676 274.417 236.994 273.918 202.18 275.304C167.366 276.689 123.169 279.974 98.0003 281.532C59.1652 283.936 35.4707 272.826 20.6027 271.908C14.0032 271.5 11.4404 302.233 4.70845 350.24C0.938531 377.124 0.915648 409.662 1.03013 431.105C1.19553 462.085 9.2832 479.955 21.1922 495.732C33.5217 512.065 51.5907 522.597 68.492 532.126C85.7169 541.839 106.001 545.776 125.817 548.714C145.183 551.585 165.469 547.276 186.644 539.86C197.873 535.927 209.077 529.024 225.413 517.886C241.748 506.748 262.617 490.912 277.658 478.028C292.698 465.143 301.277 455.689 309.546 445.47C317.815 435.25 325.513 424.551 355.08 364.314C384.647 304.078 435.851 194.627 465.68 133.347C495.51 72.0675 502.414 62.275 509.504 53.7751C522.91 37.7049 538.324 26.4284 553.238 17.6616C567.474 9.29324 583.314 6.0567 598.99 3.14466C616.127 -0.0387084 637.022 0.77644 660.273 2.65803C684.331 4.60492 707.217 15.2036 728.433 25.8941C748.486 35.9986 765.517 49.701 781.227 63.6537C796.532 77.2466 807.278 93.6596 815.724 110.481C824.564 128.086 827.679 148.79 830.496 168.856C833.22 188.264 832.172 206.192 830.172 221.477C828.332 235.542 820.926 246.792 809.216 257.083C801.804 263.598 787.733 267.846 768.82 270.971C749.908 274.096 725.642 274.719 634.854 263.86C544.066 253.001 387.491 230.642 293.793 219.048C200.095 207.454 174.018 207.302 158.624 207.821C143.23 208.339 139.309 209.532 135.986 211.309C129.63 214.709 125.402 221.954 121.654 231.049C117.434 241.292 116.241 267.564 116.12 300.645C116.054 318.834 122.881 327.565 129.716 333.734C135.822 339.244 144.24 340.245 152.616 339.599C157.282 339.239 162.216 335.419 182.742 299.265C203.268 263.111 239.089 193.873 263.239 150.939C287.389 108.005 298.781 93.4739 309.47 81.7559C328.774 60.5922 347.811 48.9809 363.504 42.236C388.379 31.5443 401.775 35.3149 406.869 37.7388C412.028 40.1936 413.821 47.5183 415.389 54.9101C417.187 63.3845 412.303 74.0424 402.029 85.7623C389.002 100.623 366.928 108.373 337.043 117.124C317.466 122.857 287.53 125.729 270.296 128.775C248.88 132.562 241.243 139.307 233.941 148.479C225.588 158.972 221.008 175.532 216.237 201.294C213.163 217.891 212.754 242.26 212.527 259.233C212.179 285.21 217.489 301.644 224.6 314.853C231.081 326.89 243.737 332.257 256.434 334.726C270.325 337.426 287.662 327.787 324.728 300.812C352.733 280.43 397.796 244.287 429.587 221.53C461.378 198.773 478.12 189.942 494.626 182.828C511.132 175.714 526.894 170.584 542.203 166.844C571.611 159.659 600.347 157.981 627.171 157.426C652.663 156.899 674.662 162.811 692.251 170.842C708.879 178.433 719.455 194.332 728.333 209.86C737.291 225.526 739.277 256.424 743.056 290.181C744.519 303.25 747.124 307.801 751.427 312.643C755.73 317.484 762.18 322.408 788.143 340.526C814.106 358.644 859.385 389.807 884.685 406.711C913.508 425.969 921.209 427.26 928.012 426.726C935.838 426.112 952.514 411.282 977.453 390.895C998.452 373.73 1023.57 364.363 1049.05 356.359C1072.49 348.994 1100.65 349.209 1126.34 350.215C1136.39 350.609 1140.17 353.337 1143.01 356.942C1156.98 374.658 1147.81 404.47 1138.17 429.884C1124.49 465.966 1103.91 489.496 1094.13 500.407C1084.92 510.688 1073.55 517.055 1061.96 522.011C1049.27 527.438 1021.4 529.96 989.836 533.86C976.193 535.546 967.179 543.899 950.918 556.612C931.857 571.516 914.85 578.456 907.163 581.015C903.883 582.107 901.443 581.2 899.282 578.427C893.876 571.493 891.254 553.708 887.855 513.724C885.461 485.568 885.6 441.18 886.777 406.973C887.953 372.765 891.158 350.017 896.437 327.245C901.716 304.474 908.972 282.369 916.589 262.33C924.206 242.291 931.964 224.988 939.873 209.8C947.782 194.612 955.609 182.064 964.215 169.814C981.294 145.503 1001.01 126.858 1020.64 114.279C1030.2 108.148 1040.78 105.612 1059.85 101.43C1078.91 97.2468 1106.61 92.2818 1123.9 88.7009C1147.41 83.8332 1157.64 78.1497 1165.42 71.9129C1181.12 59.3266 1182.44 31.7162 1187.55 11.7264C1189.46 4.23861 1193.9 3.41979 1196.87 3.50217C1199.84 3.58454 1202.21 4.91905 1204.85 8.1485C1211.13 15.8565 1216.38 31.9708 1222.83 65.4183C1227.27 88.4035 1229.46 124.366 1229.77 152.873C1230.08 181.38 1227.28 201.539 1222.83 221.241C1218.38 240.943 1212.38 259.576 1203.31 281.061C1194.24 302.547 1182.28 326.321 1172.06 344.53C1154.8 375.29 1137.43 395.591 1121.99 411.429C1096.56 437.507 1068.56 444.906 1049.6 451.031C1040.11 454.098 1030.44 455.631 976.637 457.569C922.83 459.507 825.068 461.432 758.461 461.655C691.854 461.879 659.366 460.343 638.109 460.488C607.743 460.695 590.588 468.61 575.267 477.693C560.188 486.634 548.95 499.504 538.725 510.951C529.013 521.823 517.516 544.194 505.051 571.694C497.337 588.713 496.094 602.351 495.716 616.446C495.323 631.104 502.139 646.322 514.811 664.229C532.577 689.334 552.834 703.57 562.4 709.156C570.389 713.821 579.595 712.774 588.319 710.508C598.494 707.864 614.632 687.064 639.269 660.365C650.86 647.803 662.983 639.551 677.605 630.2C692.227 620.848 709.589 611.236 739.164 599.039C768.738 586.841 809.998 572.349 833.896 564.34C862.879 554.627 870.829 553.927 875.299 554.423C877.558 554.673 879.419 556.704 880.8 559.161C883.798 564.495 883.848 582.876 883.295 621.568C882.951 645.666 881.046 678.794 879.623 698.594C877.802 723.929 873.219 733.63 867.38 741.518C861.227 749.829 849.352 753.699 826.833 756.985C810.379 759.385 783.234 758.936 764.617 758.218C736.492 757.132 712.09 747.898 684.837 738.839C663.384 731.707 649.019 731.505 641.045 732.073C622.674 733.381 601.339 751.972 591.763 761.695C583.523 770.062 583.917 785.721 583.38 797.157C583.133 802.405 585.184 806.951 588.373 810.647C597.112 820.776 632.014 823.762 662.669 825.369C668.984 825.7 675.201 823.633 707.438 805.094C739.675 786.555 797.73 750.724 832.161 730.444C866.592 710.164 875.641 706.52 887.143 704.067C912.024 698.761 930.699 700.224 939.254 703.107C958.45 709.575 972.588 738.902 980.426 755.783C981.667 758.458 981.966 761.17 985.299 763.436C1001.58 774.509 1013.24 776.124 1020.49 782.274C1022.26 783.78 1024.91 783.92 1044.06 778.036C1063.21 772.152 1099.02 759.89 1118.68 753.508C1138.34 747.126 1140.76 746.995 1142.16 747.805C1144.82 749.345 1143.77 755.843 1141.9 763.999C1136.48 787.607 1104.92 806.083 1074.98 817.34C1059.49 823.167 1040.69 820.536 1021.99 818.576C1003.28 816.615 986.721 808.572 972.066 799.79C957.082 790.811 940.833 770.047 922.07 745.489C906.853 725.575 898.66 702.013 890.9 675.817C886.896 662.303 884.906 647.754 883.417 621.765C881.927 595.775 881.547 558.636 886.458 518.403C891.369 478.17 901.583 435.969 906.759 411.512C911.934 387.055 911.763 381.621 910.427 376.311C907.738 365.624 898.477 355.466 880.512 341.303C868.549 331.872 848.98 320.327 834.23 311.717C810.109 297.637 790.799 290.627 772.747 285.547C754.366 280.374 734.521 281.156 715.054 283.243C695.005 285.392 675.337 299.002 654.589 315.96C643.617 324.928 633.241 336.382 622.9 348.296C612.559 360.211 602.949 372.686 592.408 388.98C569.556 424.302 556.358 452.668 551.538 466.55C544.026 488.187 546.806 507.847 553.62 528.089C557.536 539.722 574.054 546.935 591.458 555.563C610.371 564.938 631.275 567.793 649.592 569.224C681.898 571.746 707.354 553.692 724.379 536.318C736.533 523.914 737.242 509.698 738 498.814C738.305 494.442 732.313 490.588 725.417 486.883C703.929 475.336 659.339 483.302 639.584 491.265C629.959 495.145 623.515 504.917 616.79 514.3C595.947 543.385 591.85 581.759 586.983 583.356C582.512 584.823 576.737 582.925 570.044 580.421C553.033 574.057 542.3 549.87 532.478 527.003C519.611 497.043 527.723 460.573 535.672 447.24C539.374 441.03 549.115 439.032 564.535 436.184C591.718 431.165 620.777 434.916 642.76 438.312C663.313 441.487 681.516 451.388 698.423 461.967C706.805 467.212 713.892 473.573 731.56 496.932C749.227 520.29 777.032 560.801 791.902 580.588C806.772 600.375 807.864 598.209 808.631 593.934C810.514 583.441 809.793 568.087 807.77 550.045C805.609 530.779 796.656 512.741 788.586 496.915C775.921 472.077 758.632 463.419 747.057 459.265C741.981 457.443 736.97 458.212 732.911 458.894C722.862 460.583 719.804 481.202 716.532 520.279C713.9 551.718 713.295 606.999 712.912 640.406C712.53 673.812 713.411 683.737 712.598 689.082C711.785 694.428 709.251 694.892 706.221 694.77C699.692 694.507 690.234 686.353 678.301 669.084C671.46 659.184 666.499 644.788 659.905 619.487C653.312 594.186 646.124 557.856 641.794 520.665C637.464 483.474 636.21 446.522 635.999 424.631C635.732 397.022 640.076 387.754 645.928 381.564C658.558 368.208 683.272 370.613 705.903 372.934C731.82 375.592 750.072 396.257 758.788 401.564C762.524 403.839 764.492 408.374 765.782 413.739C768.637 425.611 749.318 438.107 729.776 449.219C711.039 459.874 687.861 457.144 668.872 458.573C641.372 460.642 661.384 526.593 664.141 530.893C669.1 538.626 687.461 533.813 703.094 526.03C713.427 520.886 719.439 498.827 728.917 473.722C742.918 436.636 747.927 425.147 755.387 419.878C759.015 417.316 766.027 417.526 773.413 418.22C776.671 418.527 778.475 421.163 779.642 423.68C782.024 428.817 781.195 435.913 779.455 443.965C777.382 453.556 768.205 462.382 754.746 471.432C735.993 484.041 713.283 485.6 696.024 486.633C677.172 487.761 659.558 485.81 641.682 483.087C618.087 479.492 596.845 475.277 584.733 476.218C580.447 476.551 580.621 480.24 581.753 483.394C587.589 499.657 608.041 514.429 626.911 526.15C631.97 529.291 639.132 529.665 644.148 529.668C649.163 529.671 652.338 528.233 655.623 524.757C663.252 516.684 674.149 486.707 690.374 446.528C701.459 419.077 715.881 409.566 725.098 407.172C734.322 404.777 743.062 406.296 749.586 408.207C755.203 409.852 757.763 415.001 759.544 419.634C760.575 422.317 760.661 426.062 760.06 428.633C757.768 438.445 734.305 440.178 711.787 441.667C689.119 443.166 672.952 431.252 668.862 430.78C666.783 430.54 664.664 430.619 662.975 437.481C658.006 457.665 659.53 476.761 661.301 484.904C662.697 491.322 667.307 494.987 671.473 497.581C675.637 500.173 680.499 500.256 684.375 499.804C686.262 499.584 687.717 498.08 689.093 495.306C692.449 488.541 694.206 459.111 696.645 420.731C697.52 406.962 698.582 404.847 700.614 403.859C702.645 402.871 705.85 403.091 708.36 403.905C712.902 405.377 715.743 410.021 718.234 415.78C721.255 422.763 721.063 432.194 720.668 441.673C720.294 450.685 714.961 458.61 708.611 465.607C695.817 479.701 674.742 480.968 643.711 482.386C637.543 482.668 635.6 483.266 634.565 484.461C633.531 485.656 633.469 487.517 634.006 489.64C634.543 491.764 635.681 494.094 637.244 495.707C638.808 497.319 640.762 498.143 643.304 498.051C645.846 497.958 648.916 496.923 651.266 494.805C666.744 480.857 668.772 444.833 685.887 430.954C713.268 408.75 738.283 430.48 744.831 435.549C754.312 442.889 717.875 456.376 676.405 469.81C668.342 472.422 666.493 473.628 665.381 475.66C662.921 480.153 663.761 485.818 664.192 490.271C664.615 494.631 667.233 498.136 670.637 500.78C678.171 506.632 686.634 505.471 691.344 504.9C697.137 504.197 704.055 481.454 712.525 449.914C717.377 431.844 726.323 424.37 733.796 419.593C737.242 417.39 740.909 417.284 743.879 417.551C749.385 418.046 753.154 422.183 755.709 426.514C756.93 428.583 757.574 430.623 755.11 433.342C748.26 440.898 716.642 448.075 678.544 457.135C664.707 460.426 662.714 463.668 661.687 466.451C659.699 471.833 661.873 478.148 664.119 484.091C665.255 487.097 667.388 489.653 669.023 488.419C674.683 484.147 676.514 474.351 684.296 470.581C710.05 458.106 739.399 469.286 744.328 470.911C763.313 477.17 675.193 483.574 672.411 484.96C670.986 485.671 671.466 488.695 670.176 490.004C668.886 491.313 666.306 491.402 665.74 490.553C664.181 488.218 673.835 486.07 682.416 485.085C686.821 484.58 686.025 477.168 686.779 473.292C687.008 472.111 689.038 473.503 689.189 474.93C689.34 476.358 688.09 478.029 686.577 479.09C680.403 483.422 669.726 480.479 662.277 476.514C660.36 475.493 659.624 472.763 660.327 472.054C661.03 471.345 663.655 472.144 665.878 472.995C668.1 473.846 669.84 474.725 674.358 475.637" stroke="black" stroke-width="2" stroke-linecap="round"/>
</svg>
