<svg width="32" height="32" viewBox="0 0 32 32" fill="none" xmlns="http://www.w3.org/2000/svg">
<g clip-path="url(#clip0_613_384)">
<rect width="31.5065" height="31.5" rx="15.75" fill="black"/>
<path d="M19.7312 16.625C20.3875 16.625 20.965 16.2663 21.2625 15.7238L24.395 10.045C24.7188 9.4675 24.2987 8.75 23.6338 8.75H10.6838L9.86125 7H7V8.75H8.75L11.9 15.3913L10.7188 17.5262C10.08 18.6987 10.92 20.125 12.25 20.125H22.75V18.375H12.25L13.2125 16.625H19.7312ZM11.515 10.5H22.1462L19.7312 14.875H13.5887L11.515 10.5ZM12.25 21C11.2875 21 10.5088 21.7875 10.5088 22.75C10.5088 23.7125 11.2875 24.5 12.25 24.5C13.2125 24.5 14 23.7125 14 22.75C14 21.7875 13.2125 21 12.25 21ZM21 21C20.0375 21 19.2587 21.7875 19.2587 22.75C19.2587 23.7125 20.0375 24.5 21 24.5C21.9625 24.5 22.75 23.7125 22.75 22.75C22.75 21.7875 21.9625 21 21 21Z" fill="white"/>
</g>
<defs>
<clipPath id="clip0_613_384">
<rect width="31.5065" height="31.5" rx="15.75" fill="white"/>
</clipPath>
</defs>
</svg>
