<svg width="22" height="22" viewBox="0 0 22 22" fill="none" xmlns="http://www.w3.org/2000/svg">
<g clip-path="url(#clip0_123_682)">
<path d="M10.8409 5.87223C14.2648 5.87223 17.3183 7.79648 18.8089 10.8409C17.3183 13.8854 14.2738 15.8097 10.8409 15.8097C7.40793 15.8097 4.36347 13.8854 2.87286 10.8409C4.36347 7.79648 7.41697 5.87223 10.8409 5.87223ZM10.8409 4.06543C6.32385 4.06543 2.46633 6.87501 0.903442 10.8409C2.46633 14.8069 6.32385 17.6165 10.8409 17.6165C15.3579 17.6165 19.2154 14.8069 20.7783 10.8409C19.2154 6.87501 15.3579 4.06543 10.8409 4.06543ZM10.8409 8.58244C12.0876 8.58244 13.0994 9.59425 13.0994 10.8409C13.0994 12.0876 12.0876 13.0994 10.8409 13.0994C9.59417 13.0994 8.58236 12.0876 8.58236 10.8409C8.58236 9.59425 9.59417 8.58244 10.8409 8.58244ZM10.8409 6.77563C8.60043 6.77563 6.77555 8.60051 6.77555 10.8409C6.77555 13.0814 8.60043 14.9062 10.8409 14.9062C13.0813 14.9062 14.9062 13.0814 14.9062 10.8409C14.9062 8.60051 13.0813 6.77563 10.8409 6.77563Z" fill="white"/>
</g>
<defs>
<clipPath id="clip0_123_682">
<rect width="21.6816" height="21.6816" fill="white"/>
</clipPath>
</defs>
</svg>
