<svg width="19" height="19" viewBox="0 0 19 19" fill="none" xmlns="http://www.w3.org/2000/svg">
<path d="M9.16667 0C4.10667 0 0 4.10667 0 9.16667C0 14.2267 4.10667 18.3333 9.16667 18.3333C14.2267 18.3333 18.3333 14.2267 18.3333 9.16667C18.3333 4.10667 14.2267 0 9.16667 0ZM1.83333 9.16667C1.83333 8.6075 1.90667 8.0575 2.02583 7.535L6.4075 11.9167V12.8333C6.4075 13.8417 7.2325 14.6667 8.24083 14.6667V16.4358C4.63833 15.9775 1.83333 12.8975 1.83333 9.16667ZM14.5658 14.1167C14.3275 13.3742 13.6492 12.8333 12.8242 12.8333H11.9075V10.0833C11.9075 9.57917 11.495 9.16667 10.9908 9.16667H5.49083V7.33333H7.32417C7.82833 7.33333 8.24083 6.92083 8.24083 6.41667V4.58333H10.0742C11.0825 4.58333 11.9075 3.75833 11.9075 2.75V2.37417C14.5933 3.45583 16.5 6.09583 16.5 9.16667C16.5 11.0733 15.7575 12.815 14.5658 14.1167Z" fill="#08374F"/>
</svg>
