<svg width="79" height="79" viewBox="0 0 79 79" fill="none" xmlns="http://www.w3.org/2000/svg">
<mask id="mask0_747_351" style="mask-type:luminance" maskUnits="userSpaceOnUse" x="0" y="0" width="79" height="79">
<path d="M0 9.23574e-05H78.3134V78.3135H0V9.23574e-05Z" fill="white"/>
</mask>
<g mask="url(#mask0_747_351)">
<path fill-rule="evenodd" clip-rule="evenodd" d="M44.8936 68.4097C56.4614 68.4097 65.896 63.4931 65.896 57.4651C65.896 51.4368 56.4614 46.5201 44.8936 46.5201C33.3259 46.5201 23.8911 51.4368 23.8911 57.4651C23.8911 63.4931 33.3259 68.4097 44.8936 68.4097Z" fill="#B3B3B3"/>
<path fill-rule="evenodd" clip-rule="evenodd" d="M22.2955 21.5028C23.6297 19.2614 24.2804 16.8404 24.2804 14.1596V10.1336H55.8801V14.1596C55.8801 16.8404 56.5308 19.2614 57.8647 21.5028C59.5182 24.2806 60.2673 26.9505 60.2673 30.0673V55.1898C60.2673 73.0597 19.8931 73.0598 19.8931 55.1898V30.0673C19.8931 26.9503 20.6421 24.2806 22.2955 21.5028Z" fill="#D4D6C7"/>
<path fill-rule="evenodd" clip-rule="evenodd" d="M56.8247 61.7052C54.7216 65.3063 48.0512 67.938 40.1464 67.938C32.2417 67.938 25.5713 65.3063 23.4683 61.7052C26.5646 64.51 32.8706 66.4303 40.1464 66.4303C47.4225 66.4303 53.7283 64.51 56.8247 61.7052Z" fill="#E9EBDD"/>
<path fill-rule="evenodd" clip-rule="evenodd" d="M53.2513 12.7618H26.9087V14.1592C26.9087 17.274 26.1475 20.1697 24.5541 22.8468C23.1754 25.1631 22.5215 27.372 22.5215 30.0669V55.1894C22.5215 69.5387 57.6386 69.5382 57.6386 55.1894V30.0669C57.6386 27.372 56.9846 25.1631 55.606 22.8468C54.0124 20.1697 53.2513 17.274 53.2513 14.1592V12.7618Z" fill="#E9EBDD"/>
<path fill-rule="evenodd" clip-rule="evenodd" d="M27.7922 24.5875C28.7139 22.4934 29.1635 20.2312 29.1635 17.7263V13.9645H36.5366V17.2333C36.5366 19.7908 36.391 22.1003 36.0918 24.2383C35.7211 26.8882 35.5529 29.435 35.5529 32.4084V56.3736C35.5529 62.9956 36.9194 67.0441 38.5903 68.521C32.147 67.9684 26.1323 63.8174 26.1323 56.0642V32.5901C26.1323 29.6777 26.6498 27.183 27.7922 24.5875Z" fill="#F3F5E9"/>
<path fill-rule="evenodd" clip-rule="evenodd" d="M22.5215 30.0669V55.1894C22.5215 69.5387 57.6386 69.5382 57.6386 55.1894V30.0669H22.5215Z" fill="#3782B0"/>
<path fill-rule="evenodd" clip-rule="evenodd" d="M49.0403 48.1236C44.4397 55.894 37.2644 55.6033 42.8055 45.655C43.7773 43.9104 47.8655 35.8521 50.3571 38.9475C52.0762 41.0832 50.2839 45.9285 49.0403 48.1236Z" fill="#243F8A"/>
<path fill-rule="evenodd" clip-rule="evenodd" d="M46.9711 46.5062C46.3448 47.5631 42.8518 52.3049 41.7133 50.8097C40.767 49.5666 44.9601 42.535 45.875 41.1003C49.0112 36.1817 49.3935 40.9389 47.8871 44.6399C47.6119 45.3161 47.3278 45.8714 46.9711 46.5062Z" fill="#29739E"/>
<path fill-rule="evenodd" clip-rule="evenodd" d="M46.2561 45.1677C44.247 48.3413 42.3389 48.6705 44.4313 44.1755C47.4047 37.7875 48.4548 41.0343 46.5532 44.6093L46.2561 45.1677Z" fill="#3A9BB3"/>
<path fill-rule="evenodd" clip-rule="evenodd" d="M47.2486 48.7534C46.7359 49.2939 47.0652 47.9652 47.286 48.5605C47.3129 48.6327 47.2891 48.6932 47.2486 48.7534Z" fill="#6A7019"/>
<path fill-rule="evenodd" clip-rule="evenodd" d="M44.0167 52.4099C43.2703 53.1324 43.4464 51.3481 44.0336 52.016C44.1432 52.1406 44.1055 52.2876 44.0167 52.4099Z" fill="#6A7019"/>
<path fill-rule="evenodd" clip-rule="evenodd" d="M45.156 50.7498C44.6387 51.2515 45.0821 50.0014 45.198 50.6095C45.2087 50.6663 45.1882 50.706 45.156 50.7498Z" fill="#6A7019"/>
<path fill-rule="evenodd" clip-rule="evenodd" d="M40.0802 21.936C49.7775 21.936 57.6387 25.5764 57.6387 30.0671C57.6387 34.5577 49.7775 38.1982 40.0802 38.1982C30.3828 38.1982 22.5215 34.5577 22.5215 30.0671C22.5215 25.5764 30.3828 21.936 40.0802 21.936Z" fill="#48C4C0"/>
<path fill-rule="evenodd" clip-rule="evenodd" d="M28.6087 63.5715C30.9949 64.7483 33.8833 65.4885 36.9017 65.792C36.0899 63.6629 35.5529 60.5239 35.5529 56.3739V32.4087C35.5529 31.6 35.5654 30.8232 35.5909 30.0671H26.2752C26.179 30.88 26.1323 31.7163 26.1323 32.5903V56.0643C26.1323 59.13 27.0733 61.6319 28.6087 63.5715Z" fill="#48A1C7"/>
<path fill-rule="evenodd" clip-rule="evenodd" d="M35.5531 37.9248C31.7517 37.4566 28.458 36.4123 26.1323 35.0062V32.5904C26.1323 29.6779 26.6499 27.1833 27.7923 24.5878C27.8515 24.4532 27.9089 24.318 27.9641 24.182C30.2524 23.1715 33.1296 22.4447 36.3329 22.1222C36.2683 22.847 36.188 23.5516 36.0919 24.2385C35.7212 26.8884 35.5531 29.4352 35.5531 32.4087V37.9248Z" fill="#64D1DB"/>
<path fill-rule="evenodd" clip-rule="evenodd" d="M40.0798 5.42491C47.2742 5.42491 53.5006 7.3424 56.5089 10.1337H58.4315V13.9233C58.4315 18.6169 50.2151 22.4219 40.0798 22.4219C29.9444 22.4219 21.728 18.6169 21.728 13.9233V10.1337H23.6506C26.659 7.3424 32.8853 5.42491 40.0798 5.42491Z" fill="#243F8A"/>
<path fill-rule="evenodd" clip-rule="evenodd" d="M40.0799 18.6318C50.1876 18.6318 58.4315 14.8142 58.4315 10.1333C58.4315 5.45252 50.1876 1.63475 40.0799 1.63475C29.9721 1.63475 21.728 5.45252 21.728 10.1333C21.728 14.8142 29.9721 18.6318 40.0799 18.6318Z" fill="#1C81BF"/>
<path fill-rule="evenodd" clip-rule="evenodd" d="M40.0803 17.4175C49.4658 17.4175 57.1209 13.8726 57.1209 9.5261C57.1209 5.17983 49.4658 1.63472 40.0803 1.63472C30.6944 1.63472 23.0396 5.17983 23.0396 9.5261C23.0396 13.8726 30.6944 17.4175 40.0803 17.4175Z" fill="#2A4CA9"/>
<path fill-rule="evenodd" clip-rule="evenodd" d="M38.0957 14.2397C44.9882 14.2397 50.6098 11.6364 50.6098 8.44456C50.6098 5.25269 44.9882 2.64925 38.0957 2.64925C31.2031 2.64925 25.5815 5.25269 25.5815 8.44456C25.5815 11.6364 31.2031 14.2397 38.0957 14.2397Z" fill="#2285BE"/>
<path fill-rule="evenodd" clip-rule="evenodd" d="M36.8705 10.5996C40.8283 10.5996 44.0567 9.10465 44.0567 7.27188C44.0567 5.43888 40.8283 3.94404 36.8705 3.94404C32.9126 3.94404 29.6846 5.43888 29.6846 7.27188C29.6846 9.10465 32.9126 10.5996 36.8705 10.5996Z" fill="#30BCC3"/>
<path fill-rule="evenodd" clip-rule="evenodd" d="M29.7025 53.5377C40.7963 62.6118 51.3329 58.2663 37.6496 46.4589C35.2502 44.3881 24.7628 34.6055 22.7366 40.5779C21.3386 44.6986 26.6516 50.9438 29.7025 53.5377Z" fill="#243F8A"/>
<path fill-rule="evenodd" clip-rule="evenodd" d="M29.7023 53.5375C31.7214 55.1889 33.721 56.3938 35.5602 57.1919C35.5554 56.9236 35.5531 56.6511 35.5531 56.3736V44.6327C32.9894 42.4463 29.0367 39.338 26.1323 38.7651V49.8196C27.3474 51.3325 28.6575 52.6491 29.7023 53.5375Z" fill="#415CA6"/>
<path fill-rule="evenodd" clip-rule="evenodd" d="M31.9048 49.9981C33.4144 51.2319 41.2063 56.3956 42.0881 53.5458C42.8212 51.1772 32.7371 42.9825 30.5916 41.3428C23.2348 35.7208 25.2586 43.0202 29.5218 47.7156C30.3007 48.5733 31.0271 49.2466 31.9048 49.9981Z" fill="#29739E"/>
<path fill-rule="evenodd" clip-rule="evenodd" d="M31.9045 49.9981C32.47 50.4604 33.9173 51.4742 35.5529 52.4116V45.4663C33.4352 43.5893 31.4204 41.9765 30.5913 41.3429C28.1835 39.5028 26.7808 39.0473 26.1323 39.4312V42.3854C26.7569 44.0212 27.9956 46.0351 29.5215 47.7157C30.3004 48.5733 31.0268 49.2467 31.9045 49.9981Z" fill="#44A0D6"/>
<path fill-rule="evenodd" clip-rule="evenodd" d="M32.2411 47.6134C36.966 51.2484 39.9895 50.6988 34.4198 45.1395C26.5052 37.2392 26.71 42.6513 31.4936 46.9432L32.2411 47.6134Z" fill="#3A9BB3"/>
<path fill-rule="evenodd" clip-rule="evenodd" d="M32.2411 47.6135C33.5135 48.5925 34.6622 49.2673 35.5534 49.623V46.3312C35.2241 45.9632 34.8477 45.5663 34.4198 45.1395C26.5052 37.2392 26.71 42.6514 31.4936 46.9432L32.2411 47.6135Z" fill="#64D1DB"/>
<path fill-rule="evenodd" clip-rule="evenodd" d="M39.5272 57.1875C41.0334 57.8574 39.7982 55.2935 39.2869 56.6094C39.1917 56.8549 39.3279 57.0534 39.5272 57.1875Z" fill="#6A7019"/>
<path fill-rule="evenodd" clip-rule="evenodd" d="M50.1995 59.1847C39.1055 68.2587 28.5692 63.9133 42.2522 52.1059C44.6519 50.0351 55.1392 40.2524 57.1653 46.2249C58.5634 50.3455 53.2504 56.5906 50.1995 59.1847Z" fill="#243F8A"/>
<path fill-rule="evenodd" clip-rule="evenodd" d="M48.3708 55.6456C46.8611 56.8794 39.0692 62.0431 38.1874 59.1932C37.4546 56.8247 47.5382 48.63 49.6841 46.9903C57.0406 41.3684 55.017 48.6678 50.7537 53.363C49.9748 54.2208 49.2486 54.8938 48.3708 55.6456Z" fill="#29739E"/>
<path fill-rule="evenodd" clip-rule="evenodd" d="M48.0346 53.261C43.3096 56.8957 40.2862 56.3463 45.8555 50.7869C53.7704 42.8863 53.5656 48.2987 48.782 52.5906L48.0346 53.261Z" fill="#3A9BB3"/>
</g>
</svg>
