<svg width="26" height="26" viewBox="0 0 26 26" fill="none" xmlns="http://www.w3.org/2000/svg">
<path d="M12.9167 0C5.77375 0 0 5.77375 0 12.9167C0 20.0596 5.77375 25.8333 12.9167 25.8333C20.0596 25.8333 25.8333 20.0596 25.8333 12.9167C25.8333 5.77375 20.0596 0 12.9167 0ZM12.9167 23.25C7.22042 23.25 2.58333 18.6129 2.58333 12.9167C2.58333 7.22042 7.22042 2.58333 12.9167 2.58333C18.6129 2.58333 23.25 7.22042 23.25 12.9167C23.25 18.6129 18.6129 23.25 12.9167 23.25ZM17.5538 6.45833L12.9167 11.0954L8.27958 6.45833L6.45833 8.27958L11.0954 12.9167L6.45833 17.5538L8.27958 19.375L12.9167 14.7379L17.5538 19.375L19.375 17.5538L14.7379 12.9167L19.375 8.27958L17.5538 6.45833Z" fill="#FB5821"/>
</svg>
