<svg width="18" height="18" viewBox="0 0 18 18" fill="none" xmlns="http://www.w3.org/2000/svg">
<path d="M12.7312 9.625C13.3875 9.625 13.965 9.26625 14.2625 8.72375L17.395 3.045C17.7188 2.4675 17.2987 1.75 16.6338 1.75H3.68375L2.86125 0H0V1.75H1.75L4.9 8.39125L3.71875 10.5262C3.08 11.6987 3.92 13.125 5.25 13.125H15.75V11.375H5.25L6.2125 9.625H12.7312ZM4.515 3.5H15.1462L12.7312 7.875H6.58875L4.515 3.5ZM5.25 14C4.2875 14 3.50875 14.7875 3.50875 15.75C3.50875 16.7125 4.2875 17.5 5.25 17.5C6.2125 17.5 7 16.7125 7 15.75C7 14.7875 6.2125 14 5.25 14ZM14 14C13.0375 14 12.2587 14.7875 12.2587 15.75C12.2587 16.7125 13.0375 17.5 14 17.5C14.9625 17.5 15.75 16.7125 15.75 15.75C15.75 14.7875 14.9625 14 14 14Z" fill="white"/>
</svg>
