<svg width="14" height="14" viewBox="0 0 14 14" fill="none" xmlns="http://www.w3.org/2000/svg">
<path d="M6.99935 12.8337C6.1924 12.8337 5.43407 12.6805 4.72435 12.3743C4.01463 12.068 3.39727 11.6524 2.87227 11.1274C2.34727 10.6024 1.93164 9.98505 1.62539 9.27533C1.31914 8.5656 1.16602 7.80727 1.16602 7.00033C1.16602 6.19338 1.31914 5.43505 1.62539 4.72533C1.93164 4.0156 2.34727 3.39824 2.87227 2.87324C3.39727 2.34824 4.01463 1.93262 4.72435 1.62637C5.43407 1.32012 6.1924 1.16699 6.99935 1.16699C7.80629 1.16699 8.56463 1.32012 9.27435 1.62637C9.98407 1.93262 10.6014 2.34824 11.1264 2.87324C11.6514 3.39824 12.0671 4.0156 12.3733 4.72533C12.6796 5.43505 12.8327 6.19338 12.8327 7.00033C12.8327 7.80727 12.6796 8.5656 12.3733 9.27533C12.0671 9.98505 11.6514 10.6024 11.1264 11.1274C10.6014 11.6524 9.98407 12.068 9.27435 12.3743C8.56463 12.6805 7.80629 12.8337 6.99935 12.8337ZM6.99935 11.667C8.30213 11.667 9.4056 11.2149 10.3098 10.3107C11.2139 9.40658 11.666 8.3031 11.666 7.00033C11.666 6.93227 11.6636 6.86178 11.6587 6.78887C11.6539 6.71595 11.6514 6.65519 11.6514 6.60658C11.6028 6.88852 11.4716 7.12185 11.2577 7.30658C11.0438 7.4913 10.791 7.58366 10.4993 7.58366H9.33268C9.01185 7.58366 8.7372 7.46942 8.50872 7.24095C8.28025 7.01248 8.16602 6.73783 8.16602 6.41699V5.83366H5.83268V4.66699C5.83268 4.34616 5.94692 4.07151 6.17539 3.84303C6.40386 3.61456 6.67852 3.50033 6.99935 3.50033H7.58268C7.58268 3.27671 7.64345 3.07984 7.76497 2.9097C7.8865 2.73956 8.03477 2.60102 8.20977 2.49408C8.01532 2.44546 7.81845 2.40658 7.61914 2.37741C7.41984 2.34824 7.21324 2.33366 6.99935 2.33366C5.69657 2.33366 4.5931 2.78574 3.68893 3.68991C2.78477 4.59408 2.33268 5.69755 2.33268 7.00033H5.24935C5.89102 7.00033 6.44032 7.2288 6.89727 7.68574C7.35421 8.14269 7.58268 8.69199 7.58268 9.33366V9.91699H5.83268V11.5212C6.02713 11.5698 6.21914 11.6062 6.40872 11.6305C6.59831 11.6548 6.79518 11.667 6.99935 11.667Z" fill="black"/>
</svg>
