<svg width="38" height="35" viewBox="0 0 38 35" fill="none" xmlns="http://www.w3.org/2000/svg">
<path d="M11.5 25C11.0833 25 10.7293 24.854 10.438 24.562C10.146 24.2707 10 23.9167 10 23.5C10 23.0833 10.146 22.7293 10.438 22.438C10.7293 22.146 11.0833 22 11.5 22C11.9167 22 12.2707 22.146 12.562 22.438C12.854 22.7293 13 23.0833 13 23.5C13 23.9167 12.854 24.2707 12.562 24.562C12.2707 24.854 11.9167 25 11.5 25ZM15 24.5V22.5H28V24.5H15ZM11.5 19C11.0833 19 10.7293 18.854 10.438 18.562C10.146 18.2707 10 17.9167 10 17.5C10 17.0833 10.146 16.7293 10.438 16.438C10.7293 16.146 11.0833 16 11.5 16C11.9167 16 12.2707 16.146 12.562 16.438C12.854 16.7293 13 17.0833 13 17.5C13 17.9167 12.854 18.2707 12.562 18.562C12.2707 18.854 11.9167 19 11.5 19ZM15 18.5V16.5H28V18.5H15ZM11.5 13C11.0833 13 10.7293 12.854 10.438 12.562C10.146 12.2707 10 11.9167 10 11.5C10 11.0833 10.146 10.7293 10.438 10.438C10.7293 10.146 11.0833 10 11.5 10C11.9167 10 12.2707 10.146 12.562 10.438C12.854 10.7293 13 11.0833 13 11.5C13 11.9167 12.854 12.2707 12.562 12.562C12.2707 12.854 11.9167 13 11.5 13ZM15 12.5V10.5H28V12.5H15Z" fill="#08374F"/>
</svg>
