<svg width="81" height="57" viewBox="0 0 81 57" fill="none" xmlns="http://www.w3.org/2000/svg">
<path d="M40.6783 56.8391C33.6116 56.8391 27.4623 54.5564 22.2303 49.9911C16.9956 45.4231 13.9116 39.7058 12.9783 32.8391H0.678284V24.8391H12.9783C13.9116 17.9724 16.9956 12.2551 22.2303 7.68711C27.4623 3.12178 33.6116 0.839111 40.6783 0.839111C47.7449 0.839111 53.8956 3.12178 59.1303 7.68711C64.3623 12.2551 67.4449 17.9724 68.3783 24.8391H80.6783V32.8391H68.3783C67.4449 39.7058 64.3623 45.4231 59.1303 49.9911C53.8956 54.5564 47.7449 56.8391 40.6783 56.8391ZM40.6783 48.8391C46.2116 48.8391 50.929 46.8884 54.8303 42.9871C58.729 39.0884 60.6783 34.3724 60.6783 28.8391C60.6783 23.3058 58.729 18.5884 54.8303 14.6871C50.929 10.7884 46.2116 8.83911 40.6783 8.83911C35.145 8.83911 30.429 10.7884 26.5303 14.6871C22.629 18.5884 20.6783 23.3058 20.6783 28.8391C20.6783 34.3724 22.629 39.0884 26.5303 42.9871C30.429 46.8884 35.145 48.8391 40.6783 48.8391ZM32.6783 42.8391H48.6783C49.8116 42.8391 50.7623 42.4551 51.5303 41.6871C52.2956 40.9218 52.6783 39.9724 52.6783 38.8391V26.8391C52.6783 25.7058 52.2956 24.7551 51.5303 23.9871C50.7623 23.2218 49.8116 22.8391 48.6783 22.8391V19.2391C48.6783 16.9058 47.9116 14.9231 46.3783 13.2911C44.845 11.6564 42.945 10.8391 40.6783 10.8391C38.4783 10.8391 36.5956 11.6218 35.0303 13.1871C33.4623 14.7551 32.6783 16.6391 32.6783 18.8391V22.8391C31.545 22.8391 30.5956 23.2218 29.8303 23.9871C29.0623 24.7551 28.6783 25.7058 28.6783 26.8391V38.8391C28.6783 39.9724 29.0623 40.9218 29.8303 41.6871C30.5956 42.4551 31.545 42.8391 32.6783 42.8391ZM40.6783 35.8391C39.8116 35.8391 39.0956 35.5551 38.5303 34.9871C37.9623 34.4218 37.6783 33.7058 37.6783 32.8391C37.6783 31.9724 37.9623 31.2551 38.5303 30.6871C39.0956 30.1218 39.8116 29.8391 40.6783 29.8391C41.5449 29.8391 42.2623 30.1218 42.8303 30.6871C43.3956 31.2551 43.6783 31.9724 43.6783 32.8391C43.6783 33.7058 43.3956 34.4218 42.8303 34.9871C42.2623 35.5551 41.5449 35.8391 40.6783 35.8391ZM36.6783 22.8391V18.8391C36.6783 17.7058 37.0623 16.7551 37.8303 15.9871C38.5956 15.2218 39.5449 14.8391 40.6783 14.8391C41.8116 14.8391 42.7623 15.2218 43.5303 15.9871C44.2956 16.7551 44.6783 17.7058 44.6783 18.8391V22.8391H36.6783Z" fill="#006395"/>
</svg>
