<svg width="814" height="814" viewBox="0 0 814 814" fill="none" xmlns="http://www.w3.org/2000/svg">
<path d="M798.023 379.024C806.274 378.433 812.512 371.262 811.619 363.039V363.039C810.725 354.815 803.092 349.151 794.907 350.346L732.836 359.412C726.449 360.345 722.049 366.277 722.747 372.694V372.694C723.444 379.112 729.014 383.961 735.453 383.5L798.023 379.024Z" fill="black"/>
<path d="M570.947 50.9059C574.407 43.3922 571.13 34.4697 563.494 31.2891V31.2891C555.858 28.1086 547.216 32.0667 544.319 39.8144L522.346 98.5701C520.084 104.616 523.162 111.33 529.121 113.812V113.812C535.08 116.294 542.013 113.75 544.713 107.887L570.947 50.9059Z" fill="black"/>
<path d="M516.291 30.5201C518.597 22.5762 514.033 14.2387 506.009 12.2265V12.2265C497.986 10.2142 490.027 15.4109 488.312 23.5028L475.3 84.8686C473.962 91.1832 478.002 97.3659 484.263 98.9362V98.9362C490.524 100.506 497.003 96.962 498.803 90.763L516.291 30.5201Z" fill="black"/>
<path d="M453.474 17.7419C454.455 9.52844 448.592 2.04631 440.348 1.36854V1.36854C432.104 0.690768 425.099 7.11501 424.725 15.3784L421.889 78.0442C421.597 84.4926 426.59 89.9342 433.024 90.4631V90.4631C439.457 90.992 445.272 86.439 446.037 80.0295L453.474 17.7419Z" fill="black"/>
<path d="M398.541 15.0687C398.363 6.79882 391.511 0.210718 383.253 0.69334V0.69334C374.996 1.17596 368.958 8.51738 369.744 16.7518L375.706 79.1978C376.319 85.6236 382.025 90.3128 388.469 89.9362V89.9362C394.913 89.5596 400.034 84.2376 399.895 77.7841L398.541 15.0687Z" fill="black"/>
<path d="M342.16 20.3769C340.792 12.219 333.062 6.6868 324.96 8.35417V8.35417C316.858 10.0215 311.942 18.1562 313.906 26.1914L328.802 87.127C330.335 93.3973 336.657 97.2155 342.98 95.9144V95.9144C349.302 94.6133 353.603 88.6089 352.535 82.2429L342.16 20.3769Z" fill="black"/>
<path d="M287.707 33.5688C285.19 25.6892 276.751 21.3154 268.969 24.1207V24.1207C261.188 26.926 257.481 35.6786 260.571 43.3517L284.002 101.541C286.413 107.529 293.215 110.407 299.287 108.218V108.218C305.359 106.029 308.76 99.4727 306.796 93.3238L287.707 33.5688Z" fill="black"/>
<path d="M232.36 56.0265C228.675 48.6208 219.669 45.5798 212.404 49.5348V49.5348C205.139 53.4897 202.805 62.7038 207.024 69.8185L239.024 123.773C242.316 129.325 249.476 131.136 255.146 128.05V128.05C260.815 124.964 263.18 117.967 260.305 112.188L232.36 56.0265Z" fill="black"/>
<path d="M185.549 83.5175C180.876 76.6919 171.537 74.9241 164.887 79.8448V79.8448C158.238 84.7655 157.2 94.2137 162.361 100.677L201.508 149.694C205.536 154.738 212.877 155.542 218.066 151.703V151.703C223.255 147.863 224.631 140.606 220.984 135.28L185.549 83.5175Z" fill="black"/>
<path d="M142.774 117.403C137.199 111.293 127.704 110.839 121.803 116.635V116.635C115.902 122.431 116.185 131.932 122.194 137.616L167.768 180.722C172.458 185.158 179.84 184.935 184.445 180.412V180.412C189.05 175.889 189.405 168.512 185.054 163.743L142.774 117.403Z" fill="black"/>
<path d="M106.88 154.791C100.547 149.469 91.0761 150.272 85.991 156.796V156.796C80.9058 163.32 82.4399 172.7 89.1467 177.542L140.008 214.259C145.242 218.037 152.531 216.843 156.499 211.752V211.752C160.467 206.66 159.846 199.301 154.904 195.148L106.88 154.791Z" fill="black"/>
<path d="M75.7508 197.344C68.7613 192.92 59.4835 194.987 55.3198 202.134V202.134C51.1561 209.282 53.9351 218.371 61.2309 222.269L116.56 251.829C122.253 254.871 129.315 252.709 132.564 247.132V247.132C135.813 241.554 134.21 234.345 128.756 230.892L75.7508 197.344Z" fill="black"/>
<path d="M51.6501 241.446C44.152 237.953 35.2148 241.189 31.9998 248.811V248.811C28.7848 256.432 32.7038 265.092 40.4384 268.024L99.0942 290.263C105.13 292.551 111.858 289.503 114.366 283.556V283.556C116.875 277.609 114.363 270.663 108.512 267.937L51.6501 241.446Z" fill="black"/>
<path d="M33.6311 287.512C25.7529 284.991 17.2944 289.327 15.0647 297.293V297.293C12.835 305.258 17.8133 313.355 25.8556 315.291L86.8449 329.966C93.1208 331.476 99.411 327.605 101.151 321.389V321.389C102.891 315.173 99.524 308.6 93.3762 306.632L33.6311 287.512Z" fill="black"/>
<path d="M20.5907 340.897C12.4374 339.502 4.66831 344.979 3.57444 353.178V353.178C2.48056 361.377 8.54226 368.699 16.7761 369.49L79.2183 375.492C85.6436 376.11 91.3309 371.398 92.1845 365V365C93.0381 358.601 88.785 352.563 82.4225 351.475L20.5907 340.897Z" fill="black"/>
<path d="M15.1546 395.216C6.8865 394.968 -0.0464875 401.47 0.00923469 409.742V409.742C0.0649568 418.013 7.08494 424.422 15.3489 424.062L78.0195 421.332C84.4683 421.051 89.4459 415.594 89.4024 409.14V409.14C89.3589 402.685 84.3083 397.296 77.8562 397.102L15.1546 395.216Z" fill="black"/>
<path d="M16.9312 446.09C8.70058 446.914 2.6686 454.26 3.79566 462.455V462.455C4.92273 470.65 12.7139 476.094 20.8616 474.667L82.65 463.839C89.0081 462.725 93.2367 456.669 92.3571 450.275V450.275C91.4776 443.88 85.7713 439.191 79.3485 439.835L16.9312 446.09Z" fill="black"/>
<path d="M24.4396 492.611C16.3674 494.417 11.2604 502.434 13.3626 510.434V510.434C15.4648 518.434 23.853 522.905 31.7705 520.51L91.8133 502.346C97.9918 500.477 101.463 493.958 99.8228 487.715V487.715C98.1823 481.472 91.9546 477.502 85.6555 478.912L24.4396 492.611Z" fill="black"/>
<path d="M39.4987 543.471C31.7443 546.351 27.7662 554.984 30.9292 562.627V562.627C34.0921 570.27 43.0071 573.567 50.5287 570.125L107.57 544.023C113.44 541.337 115.999 534.409 113.531 528.444V528.444C111.063 522.48 104.356 519.387 98.3049 521.634L39.4987 543.471Z" fill="black"/>
<path d="M62.2134 593.558C54.9383 597.494 52.2075 606.599 56.409 613.724V613.724C60.6104 620.85 69.899 622.867 76.865 618.406L129.692 584.578C135.128 581.097 136.693 573.879 133.414 568.318V568.318C130.136 562.758 123.062 560.634 117.385 563.706L62.2134 593.558Z" fill="black"/>
<path d="M91.5325 639.727C84.8761 644.638 83.4389 654.034 88.5911 660.505V660.505C93.7434 666.976 103.222 667.681 109.5 662.294L157.105 621.443C162.003 617.24 162.548 609.874 158.528 604.824V604.824C154.507 599.774 147.207 598.655 142.012 602.487L91.5325 639.727Z" fill="black"/>
<path d="M129.798 684.202C123.949 690.051 123.93 699.556 129.991 705.186V705.186C136.051 710.816 145.529 710.098 150.932 703.835L191.907 656.336C196.123 651.449 195.563 644.084 190.834 639.691V639.691C186.105 635.298 178.719 635.281 174.155 639.845L129.798 684.202Z" fill="black"/>
<path d="M178.143 725.286C173.314 732.002 174.829 741.386 181.718 745.965V745.965C188.607 750.543 197.845 748.306 202.167 741.253L234.944 687.767C238.316 682.263 236.576 675.086 231.2 671.513V671.513C225.824 667.94 218.532 669.114 214.764 674.355L178.143 725.286Z" fill="black"/>
<path d="M226.263 754.873C222.449 762.213 225.297 771.282 232.772 774.823V774.823C240.248 778.364 249.069 774.822 252.332 767.222L277.082 709.58C279.628 703.649 276.874 696.796 271.04 694.033V694.033C265.207 691.27 258.16 693.48 255.184 699.208L226.263 754.873Z" fill="black"/>
<path d="M276.41 776.632C273.654 784.431 277.736 793.016 285.631 795.482V795.482C293.526 797.949 301.769 793.215 303.943 785.234L320.434 724.71C322.131 718.483 318.45 712.079 312.289 710.154V710.154C306.128 708.23 299.456 711.399 297.306 717.485L276.41 776.632Z" fill="black"/>
<path d="M327.666 790.911C325.992 799.012 331.198 806.964 339.355 808.339V808.339C347.512 809.714 355.037 803.907 356.111 795.705L364.254 733.506C365.092 727.106 360.578 721.26 354.213 720.187V720.187C347.848 719.115 341.667 723.158 340.361 729.479L327.666 790.911Z" fill="black"/>
<path d="M380.941 798.156C380.392 806.409 386.637 813.574 394.905 813.82V813.82C403.173 814.066 409.833 807.284 409.775 799.013L409.331 736.284C409.285 729.83 404.014 724.656 397.562 724.465V724.465C391.11 724.273 385.54 729.124 385.111 735.564L380.941 798.156Z" fill="black"/>
<path d="M437.231 797.855C437.869 806.102 445.076 812.299 453.294 811.359V811.359C461.512 810.418 467.132 802.752 465.89 794.574L456.467 732.556C455.497 726.174 449.539 721.809 443.126 722.544V722.544C436.713 723.278 431.896 728.876 432.394 735.312L437.231 797.855Z" fill="black"/>
<path d="M494.164 789.21C496.003 797.274 504.04 802.349 512.032 800.214V800.214C520.023 798.079 524.46 789.673 522.033 781.765L503.626 721.797C501.732 715.626 495.199 712.181 488.962 713.847V713.847C482.726 715.513 478.781 721.756 480.216 728.05L494.164 789.21Z" fill="black"/>
<path d="M546.552 773.342C549.497 781.072 558.163 784.978 565.779 781.751V781.751C573.396 778.524 576.618 769.582 573.113 762.089L546.532 705.269C543.797 699.422 536.848 696.921 530.904 699.439V699.439C524.961 701.957 521.924 708.69 524.222 714.722L546.552 773.342Z" fill="black"/>
<path d="M598.738 748.933C602.784 756.148 611.928 758.741 618.99 754.433V754.433C626.051 750.124 627.928 740.806 623.362 733.908L588.741 681.598C585.178 676.215 577.938 674.759 572.427 678.121V678.121C566.917 681.483 564.9 688.588 568.057 694.218L598.738 748.933Z" fill="black"/>
<path d="M646.451 717.394C651.504 723.944 660.929 725.179 667.288 719.889V719.889C673.647 714.599 674.148 705.107 668.627 698.947L626.763 652.23C622.455 647.423 615.079 647.036 610.117 651.165V651.165C605.155 655.293 604.193 662.615 608.135 667.726L646.451 717.394Z" fill="black"/>
<path d="M684.202 684.202C690.051 690.051 699.556 690.07 705.186 684.009V684.009C710.816 677.949 710.098 668.471 703.835 663.068L656.336 622.093C651.449 617.877 644.084 618.437 639.691 623.166V623.166C635.298 627.895 635.281 635.281 639.845 639.845L684.202 684.202Z" fill="black"/>
<path d="M721.158 641.492C727.787 646.44 737.196 645.093 741.897 638.286V638.286C746.597 631.48 744.525 622.203 737.55 617.756L684.657 584.032C679.214 580.562 672.007 582.174 668.338 587.486V587.486C664.67 592.797 665.715 600.108 670.888 603.969L721.158 641.492Z" fill="black"/>
<path d="M751.09 594.839C758.351 598.803 767.476 596.142 771.169 588.741V588.741C774.863 581.339 771.503 572.448 763.971 569.029L706.85 543.102C700.972 540.434 694.064 543.047 691.182 548.822V548.822C688.299 554.598 690.364 561.689 696.03 564.782L751.09 594.839Z" fill="black"/>
<path d="M773.206 546.909C780.934 549.861 789.618 545.998 792.284 538.168V538.168C794.95 530.337 790.426 521.978 782.503 519.602L722.416 501.584C716.233 499.73 709.739 503.247 707.659 509.358V509.358C705.579 515.468 708.578 522.218 714.607 524.521L773.206 546.909Z" fill="black"/>
<path d="M789.134 494.493C797.198 496.339 805.259 491.303 806.807 483.178V483.178C808.356 475.052 802.711 467.405 794.533 466.157L732.522 456.691C726.141 455.717 720.2 460.105 718.992 466.446V466.446C717.784 472.787 721.694 479.052 727.987 480.493L789.134 494.493Z" fill="black"/>
<path d="M797.979 435.59C806.228 436.194 813.434 429.995 813.733 421.729V421.729C814.033 413.462 807.294 406.758 799.022 406.763L736.292 406.801C729.838 406.805 724.63 412.043 724.397 418.493V418.493C724.163 424.944 728.978 430.545 735.416 431.016L797.979 435.59Z" fill="black"/>
<path d="M623.757 80.3535C628.331 73.4612 626.465 64.1409 619.409 59.8239V59.8239C612.354 55.507 603.206 58.089 599.151 65.2991L568.404 119.977C565.24 125.603 567.249 132.71 572.755 136.079V136.079C578.261 139.448 585.504 138.001 589.073 132.622L623.757 80.3535Z" fill="black"/>
<path d="M789.222 319.892C797.287 318.054 802.363 310.017 800.229 302.025V302.025C798.096 294.033 789.69 289.595 781.782 292.022L721.811 310.42C715.64 312.313 712.194 318.846 713.859 325.082V325.082C715.524 331.319 721.767 335.265 728.06 333.83L789.222 319.892Z" fill="black"/>
<path d="M770.438 260.05C778.107 256.949 781.836 248.206 778.455 240.657V240.657C775.074 233.107 766.069 230.067 758.649 233.723L702.379 261.45C696.589 264.303 694.229 271.302 696.867 277.193V277.193C699.505 283.084 706.298 285.984 712.282 283.564L770.438 260.05Z" fill="black"/>
<path d="M675.54 121.399C681.206 115.373 680.932 105.871 674.702 100.431V100.431C668.471 94.9899 659.02 95.9989 653.812 102.426L614.318 151.162C610.254 156.177 611.04 163.521 615.903 167.767V167.767C620.765 172.012 628.147 171.802 632.569 167.1L675.54 121.399Z" fill="black"/>
<path d="M714.037 163.259C720.516 158.116 721.62 148.675 716.242 142.39V142.39C710.864 136.105 701.366 135.736 695.283 141.341L649.153 183.851C644.406 188.225 644.122 195.605 648.319 200.51V200.51C652.515 205.414 659.851 206.275 664.906 202.261L714.037 163.259Z" fill="black"/>
<path d="M746.586 211.136C753.752 207.003 756.234 197.828 751.84 190.819V190.819C747.447 183.811 738.107 182.047 731.264 186.695L679.377 221.948C674.038 225.575 672.67 232.833 676.098 238.302V238.302C679.527 243.771 686.655 245.702 692.247 242.477L746.586 211.136Z" fill="black"/>
</svg>
