<svg width="14" height="13" viewBox="0 0 14 13" fill="none" xmlns="http://www.w3.org/2000/svg">
<path d="M13.9371 4.12622L13.2016 1.06483C13.0474 0.434339 12.501 0 11.8635 0H2.13291C1.50242 0 0.948986 0.441345 0.801871 1.06483L0.0662966 4.12622C-0.101835 4.84078 0.0522858 5.56935 0.500636 6.1438C0.55668 6.22086 0.63374 6.2769 0.696789 6.34696V11.2088C0.696789 11.9794 1.32728 12.6098 2.09788 12.6098H11.9055C12.6761 12.6098 13.3066 11.9794 13.3066 11.2088V6.34696C13.3697 6.28391 13.4467 6.22086 13.5028 6.1508C13.9511 5.57636 14.1123 4.84078 13.9371 4.12622ZM11.8425 1.39409L12.5781 4.45548C12.6481 4.74971 12.5851 5.04394 12.4029 5.27512C12.3049 5.40122 12.0947 5.60438 11.7444 5.60438C11.3171 5.60438 10.9458 5.26111 10.8968 4.80575L10.4904 1.40109L11.8425 1.39409ZM7.70226 1.40109H9.07533L9.45363 4.56757C9.48866 4.84078 9.40459 5.11399 9.22245 5.31715C9.06833 5.4993 8.84415 5.60438 8.55693 5.60438C8.08756 5.60438 7.70226 5.19105 7.70226 4.68666V1.40109ZM4.54279 4.56757L4.92809 1.40109H6.30117V4.68666C6.30117 5.19105 5.91587 5.60438 5.39746 5.60438C5.15927 5.60438 4.9421 5.4993 4.77397 5.31715C4.59884 5.11399 4.51477 4.84078 4.54279 4.56757ZM1.42536 4.45548L2.13291 1.40109H3.51299L3.10667 4.80575C3.05063 5.26111 2.68634 5.60438 2.25901 5.60438C1.91574 5.60438 1.69857 5.40122 1.6075 5.27512C1.41835 5.05094 1.3553 4.74971 1.42536 4.45548ZM2.09788 11.2088V6.98446C2.15393 6.99146 2.20297 7.00547 2.25901 7.00547C2.86849 7.00547 3.42192 6.75327 3.82823 6.33995C4.24856 6.76028 4.809 7.00547 5.4465 7.00547C6.05597 7.00547 6.6024 6.75327 7.00872 6.35396C7.42204 6.75327 7.98248 7.00547 8.61297 7.00547C9.20143 7.00547 9.76187 6.76028 10.1822 6.33995C10.5885 6.75327 11.1419 7.00547 11.7514 7.00547C11.8075 7.00547 11.8565 6.99146 11.9125 6.98446V11.2088H2.09788Z" fill="#1A7F78"/>
</svg>
