<svg width="27" height="253" viewBox="0 0 27 253" fill="none" xmlns="http://www.w3.org/2000/svg">
<path d="M23.4441 3.53589C23.4441 2.43589 22.5441 1.53589 21.4441 1.53589H5.44409C4.34409 1.53589 3.44409 2.43589 3.44409 3.53589M23.4441 3.53589V15.5359C23.4441 16.6359 22.5441 17.5359 21.4441 17.5359H5.44409C4.34409 17.5359 3.44409 16.6359 3.44409 15.5359V3.53589M23.4441 3.53589L13.4441 10.5359L3.44409 3.53589" stroke="#08374F" stroke-width="2" stroke-linecap="round" stroke-linejoin="round"/>
<path d="M18.9441 114.536H15.9441C14.618 114.536 13.3462 115.063 12.4086 116C11.4709 116.938 10.9441 118.21 10.9441 119.536V122.536H7.94409V126.536H10.9441V134.536H14.9441V126.536H17.9441L18.9441 122.536H14.9441V119.536C14.9441 119.271 15.0494 119.016 15.237 118.829C15.4245 118.641 15.6789 118.536 15.9441 118.536H18.9441V114.536Z" stroke="#08374F" stroke-width="2" stroke-linecap="round" stroke-linejoin="round"/>
<path d="M23.3878 246.456V249.456C23.389 249.734 23.3319 250.01 23.2204 250.265C23.1088 250.521 22.9451 250.75 22.7399 250.938C22.5347 251.126 22.2924 251.269 22.0286 251.359C21.7648 251.448 21.4852 251.481 21.2078 251.456C18.1307 251.122 15.1748 250.07 12.5778 248.386C10.1617 246.851 8.11318 244.802 6.57784 242.386C4.88782 239.777 3.83609 236.807 3.50784 233.716C3.48285 233.439 3.51572 233.161 3.60434 232.898C3.69297 232.634 3.83541 232.393 4.02261 232.188C4.2098 231.983 4.43765 231.819 4.69163 231.707C4.94562 231.594 5.22018 231.536 5.49784 231.536H8.49784C8.98315 231.531 9.45363 231.703 9.8216 232.02C10.1896 232.336 10.4299 232.775 10.4978 233.256C10.6245 234.216 10.8593 235.159 11.1978 236.066C11.3324 236.424 11.3615 236.813 11.2817 237.187C11.202 237.561 11.0167 237.904 10.7478 238.176L9.47784 239.446C10.9014 241.95 12.9743 244.022 15.4778 245.446L16.7478 244.176C17.0197 243.907 17.363 243.722 17.737 243.642C18.1109 243.562 18.4999 243.591 18.8578 243.726C19.7651 244.065 20.7078 244.299 21.6678 244.426C22.1536 244.495 22.5972 244.739 22.9144 245.113C23.2315 245.488 23.4 245.966 23.3878 246.456Z" stroke="#08374F" stroke-width="2" stroke-linecap="round" stroke-linejoin="round"/>
</svg>
