<svg width="17" height="16" viewBox="0 0 17 16" fill="none" xmlns="http://www.w3.org/2000/svg">
<g clip-path="url(#clip0_2154_6678)">
<path d="M13.8438 6.5C13.8438 7.93437 13.3781 9.25938 12.5938 10.3344L16.55 14.2937C16.9406 14.6844 16.9406 15.3188 16.55 15.7094C16.1594 16.1 15.525 16.1 15.1344 15.7094L11.1781 11.75C10.1031 12.5375 8.77812 13 7.34375 13C3.75312 13 0.84375 10.0906 0.84375 6.5C0.84375 2.90937 3.75312 0 7.34375 0C10.9344 0 13.8438 2.90937 13.8438 6.5ZM7.34375 11C7.9347 11 8.51986 10.8836 9.06583 10.6575C9.61179 10.4313 10.1079 10.0998 10.5257 9.68198C10.9436 9.26412 11.2751 8.76804 11.5012 8.22208C11.7274 7.67611 11.8438 7.09095 11.8438 6.5C11.8438 5.90905 11.7274 5.32389 11.5012 4.77792C11.2751 4.23196 10.9436 3.73588 10.5257 3.31802C10.1079 2.90016 9.61179 2.56869 9.06583 2.34254C8.51986 2.1164 7.9347 2 7.34375 2C6.7528 2 6.16764 2.1164 5.62167 2.34254C5.07571 2.56869 4.57963 2.90016 4.16177 3.31802C3.74391 3.73588 3.41244 4.23196 3.18629 4.77792C2.96015 5.32389 2.84375 5.90905 2.84375 6.5C2.84375 7.09095 2.96015 7.67611 3.18629 8.22208C3.41244 8.76804 3.74391 9.26412 4.16177 9.68198C4.57963 10.0998 5.07571 10.4313 5.62167 10.6575C6.16764 10.8836 6.7528 11 7.34375 11Z" fill="#4B5563"/>
</g>
<defs>
<clipPath id="clip0_2154_6678">
<path d="M0.84375 0H16.8438V16H0.84375V0Z" fill="white"/>
</clipPath>
</defs>
</svg>
