<svg width="18" height="18" viewBox="0 0 18 18" fill="none" xmlns="http://www.w3.org/2000/svg">
<rect width="18" height="18" rx="9" fill="#1A7F78"/>
<path d="M9 4.4165V13.5832" stroke="white" stroke-width="0.833333" stroke-linecap="round" stroke-linejoin="round"/>
<path d="M11.0833 6.0835H7.95833C7.57156 6.0835 7.20063 6.23714 6.92714 6.51063C6.65365 6.78412 6.5 7.15506 6.5 7.54183C6.5 7.9286 6.65365 8.29954 6.92714 8.57303C7.20063 8.84652 7.57156 9.00016 7.95833 9.00016H10.0417C10.4284 9.00016 10.7994 9.15381 11.0729 9.4273C11.3464 9.70079 11.5 10.0717 11.5 10.4585C11.5 10.8453 11.3464 11.2162 11.0729 11.4897C10.7994 11.7632 10.4284 11.9168 10.0417 11.9168H6.5" stroke="white" stroke-width="0.833333" stroke-linecap="round" stroke-linejoin="round"/>
</svg>
