<svg width="18" height="18" viewBox="0 0 18 18" fill="none" xmlns="http://www.w3.org/2000/svg">
<g clip-path="url(#clip0_508_5703)">
<path d="M9 14.25C11.8995 14.25 14.25 11.8995 14.25 9C14.25 6.10051 11.8995 3.75 9 3.75C6.10051 3.75 3.75 6.10051 3.75 9C3.75 11.8995 6.10051 14.25 9 14.25Z" stroke="black" stroke-width="1.5" stroke-linecap="round" stroke-linejoin="round"/>
<path d="M9 6.75V9L10.125 10.125" stroke="black" stroke-width="1.5" stroke-linecap="round" stroke-linejoin="round"/>
<path d="M12.3829 13.0125L12.1204 15.885C12.0866 16.259 11.9137 16.6067 11.636 16.8594C11.3583 17.1122 10.9959 17.2515 10.6204 17.25H7.37285C6.99735 17.2515 6.63493 17.1122 6.3572 16.8594C6.07948 16.6067 5.90664 16.259 5.87285 15.885L5.61035 13.0125M5.61785 4.98751L5.88035 2.11501C5.91403 1.74232 6.0858 1.39568 6.36194 1.14313C6.63808 0.890578 6.99864 0.750365 7.37285 0.750012H10.6354C11.0109 0.748489 11.3733 0.887861 11.651 1.14059C11.9287 1.39332 12.1016 1.74103 12.1354 2.11501L12.3979 4.98751" stroke="black" stroke-width="1.5" stroke-linecap="round" stroke-linejoin="round"/>
</g>
<defs>
<clipPath id="clip0_508_5703">
<rect width="18" height="18" fill="white"/>
</clipPath>
</defs>
</svg>
