<svg width="19" height="19" viewBox="0 0 19 19" fill="none" xmlns="http://www.w3.org/2000/svg">
<g clip-path="url(#clip0_206_5469)">
<path d="M16.9949 8.55927V9.26997C16.994 10.9358 16.4545 12.5567 15.4571 13.8909C14.4597 15.2251 13.0577 16.2012 11.4602 16.6735C9.86275 17.1458 8.1554 17.0891 6.59279 16.5118C5.03019 15.9345 3.69607 14.8676 2.78939 13.4701C1.88271 12.0726 1.45206 10.4195 1.56167 8.75727C1.67127 7.09505 2.31526 5.51279 3.39759 4.24647C4.47992 2.98014 5.94259 2.09761 7.56747 1.73049C9.19235 1.36337 10.8924 1.53133 12.414 2.20933" stroke="white" stroke-width="1.545" stroke-linecap="round" stroke-linejoin="round"/>
<path d="M16.9951 3.09L9.27013 10.8227L6.95264 8.50522" stroke="white" stroke-width="1.545" stroke-linecap="round" stroke-linejoin="round"/>
</g>
<defs>
<clipPath id="clip0_206_5469">
<rect width="18.54" height="18.54" fill="white"/>
</clipPath>
</defs>
</svg>
