<svg width="18" height="18" viewBox="0 0 18 18" fill="none" xmlns="http://www.w3.org/2000/svg">
<path d="M8.82874 17.6575C3.94644 17.6575 0 13.711 0 8.82874C0 3.94644 3.94644 0 8.82874 0C13.711 0 17.6575 3.94644 17.6575 8.82874C17.6575 13.711 13.711 17.6575 8.82874 17.6575ZM8.82874 1.76575C4.93526 1.76575 1.76575 4.93526 1.76575 8.82874C1.76575 12.7222 4.93526 15.8917 8.82874 15.8917C12.7222 15.8917 15.8917 12.7222 15.8917 8.82874C15.8917 4.93526 12.7222 1.76575 8.82874 1.76575ZM11.9983 13.2431L8.82874 10.0736L5.65922 13.2431L4.41437 11.9983L7.58388 8.82874L4.41437 5.65922L5.65922 4.41437L8.82874 7.58388L11.9983 4.41437L13.2431 5.65922L10.0736 8.82874L13.2431 11.9983L11.9983 13.2431Z" fill="white"/>
</svg>
