<svg width="17" height="20" viewBox="0 0 17 20" fill="none" xmlns="http://www.w3.org/2000/svg">
<path d="M16.2812 20H0.53125V0H16.2812V20Z" stroke="#E5E7EB"/>
<path d="M16.2812 20H0.53125V0H16.2812V20Z" stroke="#E5E7EB"/>
<g clip-path="url(#clip0_1930_2958)">
<path d="M8.4063 3.625C6.19692 3.625 4.42778 4.63125 3.13989 5.82891C1.86021 7.01562 1.00435 8.4375 0.599658 9.41367C0.509424 9.62969 0.509424 9.87031 0.599658 10.0863C1.00435 11.0625 1.86021 12.4844 3.13989 13.6711C4.42778 14.8687 6.19692 15.875 8.4063 15.875C10.6157 15.875 12.3848 14.8687 13.6727 13.6711C14.9524 12.4816 15.8083 11.0625 16.2157 10.0863C16.3059 9.87031 16.3059 9.62969 16.2157 9.41367C15.8083 8.4375 14.9524 7.01562 13.6727 5.82891C12.3848 4.63125 10.6157 3.625 8.4063 3.625ZM4.4688 9.75C4.4688 8.70571 4.88364 7.70419 5.62207 6.96577C6.36049 6.22734 7.36201 5.8125 8.4063 5.8125C9.45059 5.8125 10.4521 6.22734 11.1905 6.96577C11.929 7.70419 12.3438 8.70571 12.3438 9.75C12.3438 10.7943 11.929 11.7958 11.1905 12.5342C10.4521 13.2727 9.45059 13.6875 8.4063 13.6875C7.36201 13.6875 6.36049 13.2727 5.62207 12.5342C4.88364 11.7958 4.4688 10.7943 4.4688 9.75ZM8.4063 8C8.4063 8.96523 7.62153 9.75 6.6563 9.75C6.46216 9.75 6.27622 9.71719 6.10122 9.65977C5.95083 9.61055 5.77583 9.70352 5.7813 9.86211C5.7895 10.0508 5.81685 10.2395 5.8688 10.4281C6.24341 11.8281 7.68442 12.6594 9.08442 12.2848C10.4844 11.9102 11.3157 10.4691 10.9411 9.06914C10.6375 7.93438 9.63403 7.17148 8.51841 7.125C8.35981 7.11953 8.26685 7.2918 8.31606 7.44492C8.37349 7.61992 8.4063 7.80586 8.4063 8Z" fill="#16A34A"/>
</g>
<defs>
<clipPath id="clip0_1930_2958">
<path d="M0.53125 2.75H16.2812V16.75H0.53125V2.75Z" fill="white"/>
</clipPath>
</defs>
</svg>
