<svg width="15" height="20" viewBox="0 0 15 20" fill="none" xmlns="http://www.w3.org/2000/svg">
<path d="M14.5312 20H0.53125V0H14.5312V20Z" stroke="#E5E7EB"/>
<path d="M14.5312 20H0.53125V0H14.5312V20Z" stroke="#E5E7EB"/>
<g clip-path="url(#clip0_1930_2953)">
<path d="M13.4266 3.34316C12.8277 2.74434 11.8598 2.74434 11.2609 3.34316L10.4379 4.16348L13.1148 6.84043L13.9379 6.01738C14.5367 5.41855 14.5367 4.45059 13.9379 3.85176L13.4266 3.34316ZM5.24531 9.35879C5.07852 9.52559 4.95 9.73066 4.87617 9.95762L4.0668 12.3857C3.9875 12.6209 4.05039 12.8807 4.22539 13.0584C4.40039 13.2361 4.66016 13.2963 4.89805 13.217L7.32617 12.4076C7.55039 12.3338 7.75547 12.2053 7.925 12.0385L12.4996 7.46113L9.81992 4.78145L5.24531 9.35879ZM3.15625 4.4998C1.70703 4.4998 0.53125 5.67559 0.53125 7.1248V14.1248C0.53125 15.574 1.70703 16.7498 3.15625 16.7498H10.1562C11.6055 16.7498 12.7812 15.574 12.7812 14.1248V11.4998C12.7812 11.0158 12.3902 10.6248 11.9062 10.6248C11.4223 10.6248 11.0312 11.0158 11.0312 11.4998V14.1248C11.0312 14.6088 10.6402 14.9998 10.1562 14.9998H3.15625C2.67227 14.9998 2.28125 14.6088 2.28125 14.1248V7.1248C2.28125 6.64082 2.67227 6.2498 3.15625 6.2498H5.78125C6.26523 6.2498 6.65625 5.85879 6.65625 5.3748C6.65625 4.89082 6.26523 4.4998 5.78125 4.4998H3.15625Z" fill="#2563EB"/>
</g>
<defs>
<clipPath id="clip0_1930_2953">
<path d="M0.53125 2.75H14.5312V16.75H0.53125V2.75Z" fill="white"/>
</clipPath>
</defs>
</svg>
