<svg width="13" height="20" viewBox="0 0 13 20" fill="none" xmlns="http://www.w3.org/2000/svg">
<path d="M12.5312 20H0.28125V0H12.5312V20Z" stroke="#E5E7EB"/>
<path d="M12.5312 20H0.28125V0H12.5312V20Z" stroke="#E5E7EB"/>
<g clip-path="url(#clip0_1930_2963)">
<path d="M3.97812 3.23398L3.78125 3.625H1.15625C0.672266 3.625 0.28125 4.01602 0.28125 4.5C0.28125 4.98398 0.672266 5.375 1.15625 5.375H11.6562C12.1402 5.375 12.5312 4.98398 12.5312 4.5C12.5312 4.01602 12.1402 3.625 11.6562 3.625H9.03125L8.83437 3.23398C8.68672 2.93594 8.3832 2.75 8.05234 2.75H4.76016C4.4293 2.75 4.12578 2.93594 3.97812 3.23398ZM11.6562 6.25H1.15625L1.73594 15.5195C1.77969 16.2113 2.35391 16.75 3.0457 16.75H9.7668C10.4586 16.75 11.0328 16.2113 11.0766 15.5195L11.6562 6.25Z" fill="#DC2626"/>
</g>
<defs>
<clipPath id="clip0_1930_2963">
<path d="M0.28125 2.75H12.5312V16.75H0.28125V2.75Z" fill="white"/>
</clipPath>
</defs>
</svg>
