<svg width="39" height="44" viewBox="0 0 39 44" fill="none" xmlns="http://www.w3.org/2000/svg">
<path d="M30.5 0C34.9183 0 38.5 3.58172 38.5 8V36C38.5 40.4183 34.9183 44 30.5 44H8C3.58172 44 0 40.4183 0 36V8C0 3.58172 3.58172 0 8 0H30.5Z" fill="#059669"/>
<path d="M30.5 0C34.9183 0 38.5 3.58172 38.5 8V36C38.5 40.4183 34.9183 44 30.5 44H8C3.58172 44 0 40.4183 0 36V8C0 3.58172 3.58172 0 8 0H30.5Z" stroke="#E5E7EB"/>
<path d="M30.5 36H8V8H30.5V36Z" stroke="#E5E7EB"/>
<g clip-path="url(#clip0_1907_7580)">
<path d="M12.375 15.25C11.3398 15.25 10.5 16.0898 10.5 17.125V21.5H14.25V17.125C14.25 16.0898 13.4102 15.25 12.375 15.25ZM8 17.125C8 14.707 9.95703 12.75 12.375 12.75C14.793 12.75 16.75 14.707 16.75 17.125V25.875C16.75 28.293 14.793 30.25 12.375 30.25C9.95703 30.25 8 28.293 8 25.875V17.125ZM29.6758 27.1016C29.3984 27.582 28.75 27.6133 28.3555 27.2227L21.0273 19.8945C20.6367 19.5039 20.6641 18.8516 21.1484 18.5742C22.0625 18.0508 23.1211 17.75 24.25 17.75C27.7031 17.75 30.5 20.5469 30.5 24C30.5 25.1289 30.1992 26.1875 29.6758 27.1016ZM27.3516 29.4258C26.4375 29.9492 25.3789 30.25 24.25 30.25C20.7969 30.25 18 27.4531 18 24C18 22.8711 18.3008 21.8125 18.8242 20.8984C19.1016 20.418 19.75 20.3867 20.1445 20.7773L27.4727 28.1055C27.8633 28.4961 27.8359 29.1484 27.3516 29.4258Z" fill="white"/>
</g>
<defs>
<clipPath id="clip0_1907_7580">
<path d="M8 11.5H30.5V31.5H8V11.5Z" fill="white"/>
</clipPath>
</defs>
</svg>
