<svg width="16" height="24" viewBox="0 0 16 24" fill="none" xmlns="http://www.w3.org/2000/svg">
<path d="M16 24H0V0H16V24Z" stroke="#E5E7EB"/>
<path d="M16 23H0V0H16V23Z" stroke="#E5E7EB"/>
<path d="M16 19H0V3H16V19Z" stroke="#E5E7EB"/>
<path d="M3.28437 9.33105C3.525 8.6498 3.91562 8.00918 4.46562 7.4623C6.41875 5.50918 9.58438 5.50918 11.5375 7.4623L12.0719 7.9998H10.5C9.94687 7.9998 9.5 8.44668 9.5 8.9998C9.5 9.55293 9.94687 9.9998 10.5 9.9998H14.4844H14.4969C15.05 9.9998 15.4969 9.55293 15.4969 8.9998V4.9998C15.4969 4.44668 15.05 3.9998 14.4969 3.9998C13.9437 3.9998 13.4969 4.44668 13.4969 4.9998V6.5998L12.95 6.0498C10.2156 3.31543 5.78438 3.31543 3.05 6.0498C2.2875 6.8123 1.7375 7.70918 1.4 8.66855C1.21562 9.19043 1.49063 9.75918 2.00938 9.94355C2.52813 10.1279 3.1 9.85293 3.28437 9.33418V9.33105ZM1.21875 12.0404C1.0625 12.0873 0.9125 12.1717 0.790625 12.2967C0.665625 12.4217 0.58125 12.5717 0.5375 12.7342C0.528125 12.7717 0.51875 12.8123 0.5125 12.8529C0.503125 12.9061 0.5 12.9592 0.5 13.0123V16.9998C0.5 17.5529 0.946875 17.9998 1.5 17.9998C2.05313 17.9998 2.5 17.5529 2.5 16.9998V15.4029L3.05 15.9498C5.78438 18.6811 10.2156 18.6811 12.9469 15.9498C13.7094 15.1873 14.2625 14.2904 14.6 13.3342C14.7844 12.8123 14.5094 12.2436 13.9906 12.0592C13.4719 11.8748 12.9 12.1498 12.7156 12.6686C12.475 13.3498 12.0844 13.9904 11.5344 14.5373C9.58125 16.4904 6.41563 16.4904 4.4625 14.5373L4.45937 14.5342L3.925 13.9998H5.5C6.05312 13.9998 6.5 13.5529 6.5 12.9998C6.5 12.4467 6.05312 11.9998 5.5 11.9998H1.5125C1.4625 11.9998 1.4125 12.0029 1.3625 12.0092C1.3125 12.0154 1.26562 12.0248 1.21875 12.0404Z" fill="#6B7280"/>
</svg>
