<svg width="25" height="25" viewBox="0 0 25 25" fill="none" xmlns="http://www.w3.org/2000/svg">
<path d="M3.52783 6.80811H5.52783H21.5278" stroke="white" stroke-width="2" stroke-linecap="round" stroke-linejoin="round"/>
<path d="M19.5278 6.80811V20.8081C19.5278 21.3385 19.3171 21.8472 18.942 22.2223C18.567 22.5974 18.0583 22.8081 17.5278 22.8081H7.52783C6.9974 22.8081 6.48869 22.5974 6.11362 22.2223C5.73855 21.8472 5.52783 21.3385 5.52783 20.8081V6.80811M8.52783 6.80811V4.80811C8.52783 4.27767 8.73855 3.76896 9.11362 3.39389C9.48869 3.01882 9.9974 2.80811 10.5278 2.80811H14.5278C15.0583 2.80811 15.567 3.01882 15.942 3.39389C16.3171 3.76896 16.5278 4.27767 16.5278 4.80811V6.80811" stroke="white" stroke-width="2" stroke-linecap="round" stroke-linejoin="round"/>
<path d="M10.5278 11.8081V17.8081" stroke="white" stroke-width="2" stroke-linecap="round" stroke-linejoin="round"/>
<path d="M14.5278 11.8081V17.8081" stroke="white" stroke-width="2" stroke-linecap="round" stroke-linejoin="round"/>
</svg>
