<svg width="440" height="61" viewBox="0 0 440 61" fill="none" xmlns="http://www.w3.org/2000/svg">
<rect width="440" height="61" rx="15" fill="black"/>
<rect width="128" height="61" rx="10" fill="url(#paint0_linear_856_4234)" fill-opacity="0.25"/>
<g filter="url(#filter0_d_856_4234)">
<rect x="10" y="10" width="108" height="41" rx="10" fill="white" shape-rendering="crispEdges"/>
<path d="M48.928 36.16C48.032 36.16 47.168 35.984 46.336 35.632C45.504 35.28 44.768 34.784 44.128 34.144L45.152 32.96C45.76 33.5573 46.3787 34 47.008 34.288C47.648 34.576 48.3147 34.72 49.008 34.72C49.552 34.72 50.0267 34.6453 50.432 34.496C50.848 34.336 51.168 34.112 51.392 33.824C51.616 33.536 51.728 33.2107 51.728 32.848C51.728 32.3467 51.552 31.9627 51.2 31.696C50.848 31.4293 50.2667 31.2267 49.456 31.088L47.584 30.784C46.56 30.6027 45.792 30.272 45.28 29.792C44.7787 29.312 44.528 28.672 44.528 27.872C44.528 27.232 44.6987 26.672 45.04 26.192C45.3813 25.7013 45.8613 25.3227 46.48 25.056C47.1093 24.7893 47.8347 24.656 48.656 24.656C49.4667 24.656 50.2613 24.7893 51.04 25.056C51.8293 25.312 52.5387 25.6853 53.168 26.176L52.24 27.456C51.0347 26.5387 49.8133 26.08 48.576 26.08C48.0853 26.08 47.6587 26.1493 47.296 26.288C46.9333 26.4267 46.6507 26.624 46.448 26.88C46.2453 27.1253 46.144 27.4133 46.144 27.744C46.144 28.2027 46.2987 28.5547 46.608 28.8C46.9173 29.0347 47.4293 29.2053 48.144 29.312L49.952 29.616C51.136 29.808 52.0053 30.1547 52.56 30.656C53.1147 31.1573 53.392 31.8453 53.392 32.72C53.392 33.4027 53.2053 34.0053 52.832 34.528C52.4587 35.04 51.936 35.44 51.264 35.728C50.592 36.016 49.8133 36.16 48.928 36.16ZM58.0101 36.144C57.2208 36.144 56.6181 35.9627 56.2021 35.6C55.7861 35.2267 55.5781 34.688 55.5781 33.984V29.2H53.8501V27.856H55.5781V25.776L57.1621 25.392V27.856H59.5621V29.2H57.1621V33.616C57.1621 34.032 57.2528 34.3307 57.4341 34.512C57.6261 34.6827 57.9355 34.768 58.3621 34.768C58.5861 34.768 58.7835 34.752 58.9541 34.72C59.1355 34.688 59.3275 34.64 59.5301 34.576V35.92C59.3168 35.9947 59.0661 36.048 58.7781 36.08C58.5008 36.1227 58.2448 36.144 58.0101 36.144ZM64.4879 36.16C63.6985 36.16 62.9785 35.9733 62.3279 35.6C61.6879 35.2267 61.1812 34.72 60.8079 34.08C60.4345 33.44 60.2479 32.7253 60.2479 31.936C60.2479 31.1467 60.4345 30.432 60.8079 29.792C61.1812 29.152 61.6879 28.6453 62.3279 28.272C62.9785 27.888 63.6985 27.696 64.4879 27.696C65.2879 27.696 66.0079 27.888 66.6479 28.272C67.2879 28.6453 67.7945 29.152 68.1679 29.792C68.5412 30.432 68.7279 31.1467 68.7279 31.936C68.7279 32.7253 68.5412 33.44 68.1679 34.08C67.7945 34.72 67.2879 35.2267 66.6479 35.6C66.0079 35.9733 65.2879 36.16 64.4879 36.16ZM64.4879 34.752C64.9892 34.752 65.4425 34.6293 65.8479 34.384C66.2532 34.128 66.5732 33.7867 66.8079 33.36C67.0425 32.9333 67.1599 32.4533 67.1599 31.92C67.1599 31.3973 67.0372 30.928 66.7919 30.512C66.5572 30.0853 66.2372 29.744 65.8319 29.488C65.4372 29.232 64.9892 29.104 64.4879 29.104C63.9865 29.104 63.5332 29.232 63.1279 29.488C62.7332 29.744 62.4132 30.0853 62.1679 30.512C61.9332 30.928 61.8159 31.3973 61.8159 31.92C61.8159 32.4533 61.9332 32.9333 62.1679 33.36C62.4025 33.7867 62.7225 34.128 63.1279 34.384C63.5332 34.6293 63.9865 34.752 64.4879 34.752ZM70.2409 36V27.856H71.8409V28.896C72.0969 28.512 72.4115 28.2133 72.7849 28C73.1689 27.776 73.6009 27.664 74.0809 27.664C74.4115 27.6747 74.6835 27.7227 74.8969 27.808V29.248C74.7475 29.184 74.5929 29.1413 74.4329 29.12C74.2729 29.088 74.1129 29.072 73.9529 29.072C73.4835 29.072 73.0675 29.2 72.7049 29.456C72.3422 29.7013 72.0542 30.064 71.8409 30.544V36H70.2409ZM79.6136 36.144C78.8136 36.144 78.0883 35.9573 77.4376 35.584C76.7976 35.2107 76.2856 34.704 75.9016 34.064C75.5283 33.424 75.3416 32.7093 75.3416 31.92C75.3416 31.1413 75.523 30.4373 75.8856 29.808C76.2483 29.168 76.739 28.6613 77.3576 28.288C77.9763 27.904 78.6643 27.712 79.4216 27.712C80.179 27.712 80.851 27.904 81.4376 28.288C82.0243 28.6613 82.4883 29.1733 82.8296 29.824C83.1816 30.464 83.3576 31.1893 83.3576 32V32.448H76.9416C77.027 32.896 77.1923 33.296 77.4376 33.648C77.6936 34 78.0136 34.2773 78.3976 34.48C78.7923 34.6827 79.219 34.784 79.6776 34.784C80.0723 34.784 80.451 34.7253 80.8136 34.608C81.187 34.48 81.4963 34.2987 81.7416 34.064L82.7656 35.072C82.2856 35.4347 81.7896 35.7067 81.2776 35.888C80.7763 36.0587 80.2216 36.144 79.6136 36.144ZM76.9576 31.248H81.7736C81.7096 30.8213 81.5603 30.448 81.3256 30.128C81.1016 29.7973 80.819 29.5413 80.4776 29.36C80.147 29.168 79.7843 29.072 79.3896 29.072C78.9843 29.072 78.611 29.1627 78.2696 29.344C77.9283 29.5253 77.6403 29.7813 77.4056 30.112C77.1816 30.432 77.0323 30.8107 76.9576 31.248Z" fill="black"/>
</g>
<path d="M182.816 34.496H185.12C185.707 34.496 186.251 34.3947 186.752 34.192C187.253 33.9787 187.691 33.6907 188.064 33.328C188.448 32.9547 188.741 32.5227 188.944 32.032C189.157 31.5307 189.264 30.9867 189.264 30.4C189.264 29.824 189.157 29.2853 188.944 28.784C188.741 28.2827 188.448 27.8507 188.064 27.488C187.691 27.1147 187.253 26.8267 186.752 26.624C186.251 26.4107 185.707 26.304 185.12 26.304H182.816V34.496ZM181.136 36V24.8H185.088C185.931 24.8 186.709 24.944 187.424 25.232C188.139 25.5093 188.763 25.8987 189.296 26.4C189.829 26.9013 190.245 27.4933 190.544 28.176C190.843 28.8587 190.992 29.6 190.992 30.4C190.992 31.2107 190.843 31.9573 190.544 32.64C190.256 33.312 189.845 33.8987 189.312 34.4C188.779 34.9013 188.149 35.296 187.424 35.584C186.709 35.8613 185.931 36 185.088 36H181.136ZM194.989 36.144C194.402 36.144 193.885 36.0427 193.437 35.84C192.989 35.6267 192.637 35.3333 192.381 34.96C192.125 34.5867 191.997 34.1547 191.997 33.664C191.997 32.896 192.29 32.2933 192.877 31.856C193.463 31.408 194.269 31.184 195.293 31.184C196.093 31.184 196.834 31.3387 197.517 31.648V30.784C197.517 30.1973 197.346 29.76 197.005 29.472C196.674 29.184 196.183 29.04 195.533 29.04C195.159 29.04 194.77 29.0987 194.365 29.216C193.959 29.3227 193.506 29.4933 193.005 29.728L192.413 28.528C193.031 28.24 193.607 28.032 194.141 27.904C194.674 27.7653 195.213 27.696 195.757 27.696C196.813 27.696 197.629 27.9467 198.205 28.448C198.791 28.9493 199.085 29.664 199.085 30.592V36H197.517V35.296C197.154 35.584 196.765 35.7973 196.349 35.936C195.933 36.0747 195.479 36.144 194.989 36.144ZM193.533 33.632C193.533 34.0267 193.698 34.3467 194.029 34.592C194.37 34.8267 194.813 34.944 195.357 34.944C195.783 34.944 196.173 34.8853 196.525 34.768C196.887 34.64 197.218 34.4427 197.517 34.176V32.8C197.207 32.6187 196.882 32.4907 196.541 32.416C196.21 32.3307 195.837 32.288 195.421 32.288C194.834 32.288 194.37 32.4107 194.029 32.656C193.698 32.8907 193.533 33.216 193.533 33.632ZM203.728 36.16C203.024 36.16 202.363 36.0587 201.744 35.856C201.136 35.6427 200.608 35.344 200.16 34.96L201.04 33.904C201.456 34.2347 201.883 34.4907 202.32 34.672C202.768 34.8427 203.222 34.928 203.68 34.928C204.256 34.928 204.726 34.816 205.088 34.592C205.451 34.368 205.632 34.0747 205.632 33.712C205.632 33.4133 205.526 33.1787 205.312 33.008C205.099 32.8373 204.768 32.72 204.32 32.656L202.848 32.448C202.038 32.3307 201.43 32.08 201.024 31.696C200.619 31.312 200.416 30.8 200.416 30.16C200.416 29.6693 200.55 29.2427 200.816 28.88C201.083 28.5067 201.456 28.2187 201.936 28.016C202.416 27.8027 202.976 27.696 203.616 27.696C204.203 27.696 204.768 27.7813 205.312 27.952C205.856 28.1227 206.379 28.3893 206.88 28.752L206.064 29.808C205.616 29.5093 205.179 29.2907 204.752 29.152C204.336 29.0133 203.915 28.944 203.488 28.944C202.998 28.944 202.603 29.0507 202.304 29.264C202.006 29.4667 201.856 29.7333 201.856 30.064C201.856 30.3627 201.958 30.5973 202.16 30.768C202.374 30.928 202.72 31.04 203.2 31.104L204.672 31.312C205.483 31.4293 206.096 31.68 206.512 32.064C206.928 32.4373 207.136 32.944 207.136 33.584C207.136 34.0747 206.987 34.5173 206.688 34.912C206.39 35.296 205.984 35.6 205.472 35.824C204.96 36.048 204.379 36.16 203.728 36.16ZM208.366 36V24.8L209.966 24.448V28.688C210.595 28.0267 211.411 27.696 212.414 27.696C213.043 27.696 213.593 27.8293 214.062 28.096C214.542 28.3627 214.915 28.736 215.182 29.216C215.459 29.696 215.598 30.2507 215.598 30.88V36H213.998V31.152C213.998 30.512 213.817 30.0107 213.454 29.648C213.091 29.2747 212.595 29.088 211.966 29.088C211.539 29.088 211.155 29.1787 210.814 29.36C210.473 29.5413 210.19 29.8027 209.966 30.144V36H208.366ZM217.444 36V24.8L219.044 24.496V28.624C219.727 28.0267 220.553 27.728 221.524 27.728C222.292 27.728 222.985 27.9147 223.604 28.288C224.233 28.6613 224.729 29.1627 225.092 29.792C225.455 30.4213 225.636 31.1307 225.636 31.92C225.636 32.7093 225.449 33.424 225.076 34.064C224.713 34.6933 224.217 35.1947 223.588 35.568C222.969 35.9413 222.271 36.128 221.492 36.128C221.044 36.128 220.607 36.0587 220.18 35.92C219.764 35.7707 219.38 35.5627 219.028 35.296V36H217.444ZM221.316 34.736C221.839 34.736 222.303 34.6133 222.708 34.368C223.124 34.1227 223.455 33.792 223.7 33.376C223.945 32.9493 224.068 32.4693 224.068 31.936C224.068 31.4027 223.945 30.9227 223.7 30.496C223.455 30.0693 223.124 29.7333 222.708 29.488C222.303 29.2427 221.839 29.12 221.316 29.12C220.857 29.12 220.431 29.2053 220.036 29.376C219.641 29.5467 219.311 29.7867 219.044 30.096V33.776C219.311 34.0747 219.641 34.3093 220.036 34.48C220.441 34.6507 220.868 34.736 221.316 34.736ZM231.035 36.16C230.245 36.16 229.525 35.9733 228.875 35.6C228.235 35.2267 227.728 34.72 227.355 34.08C226.981 33.44 226.795 32.7253 226.795 31.936C226.795 31.1467 226.981 30.432 227.355 29.792C227.728 29.152 228.235 28.6453 228.875 28.272C229.525 27.888 230.245 27.696 231.035 27.696C231.835 27.696 232.555 27.888 233.195 28.272C233.835 28.6453 234.341 29.152 234.715 29.792C235.088 30.432 235.275 31.1467 235.275 31.936C235.275 32.7253 235.088 33.44 234.715 34.08C234.341 34.72 233.835 35.2267 233.195 35.6C232.555 35.9733 231.835 36.16 231.035 36.16ZM231.035 34.752C231.536 34.752 231.989 34.6293 232.395 34.384C232.8 34.128 233.12 33.7867 233.355 33.36C233.589 32.9333 233.707 32.4533 233.707 31.92C233.707 31.3973 233.584 30.928 233.339 30.512C233.104 30.0853 232.784 29.744 232.379 29.488C231.984 29.232 231.536 29.104 231.035 29.104C230.533 29.104 230.08 29.232 229.675 29.488C229.28 29.744 228.96 30.0853 228.715 30.512C228.48 30.928 228.363 31.3973 228.363 31.92C228.363 32.4533 228.48 32.9333 228.715 33.36C228.949 33.7867 229.269 34.128 229.675 34.384C230.08 34.6293 230.533 34.752 231.035 34.752ZM239.442 36.144C238.855 36.144 238.338 36.0427 237.89 35.84C237.442 35.6267 237.09 35.3333 236.834 34.96C236.578 34.5867 236.45 34.1547 236.45 33.664C236.45 32.896 236.743 32.2933 237.33 31.856C237.917 31.408 238.722 31.184 239.746 31.184C240.546 31.184 241.287 31.3387 241.97 31.648V30.784C241.97 30.1973 241.799 29.76 241.458 29.472C241.127 29.184 240.637 29.04 239.986 29.04C239.613 29.04 239.223 29.0987 238.818 29.216C238.413 29.3227 237.959 29.4933 237.458 29.728L236.866 28.528C237.485 28.24 238.061 28.032 238.594 27.904C239.127 27.7653 239.666 27.696 240.21 27.696C241.266 27.696 242.082 27.9467 242.658 28.448C243.245 28.9493 243.538 29.664 243.538 30.592V36H241.97V35.296C241.607 35.584 241.218 35.7973 240.802 35.936C240.386 36.0747 239.933 36.144 239.442 36.144ZM237.986 33.632C237.986 34.0267 238.151 34.3467 238.482 34.592C238.823 34.8267 239.266 34.944 239.81 34.944C240.237 34.944 240.626 34.8853 240.978 34.768C241.341 34.64 241.671 34.4427 241.97 34.176V32.8C241.661 32.6187 241.335 32.4907 240.994 32.416C240.663 32.3307 240.29 32.288 239.874 32.288C239.287 32.288 238.823 32.4107 238.482 32.656C238.151 32.8907 237.986 33.216 237.986 33.632ZM245.382 36V27.856H246.982V28.896C247.238 28.512 247.552 28.2133 247.926 28C248.31 27.776 248.742 27.664 249.222 27.664C249.552 27.6747 249.824 27.7227 250.038 27.808V29.248C249.888 29.184 249.734 29.1413 249.574 29.12C249.414 29.088 249.254 29.072 249.094 29.072C248.624 29.072 248.208 29.2 247.846 29.456C247.483 29.7013 247.195 30.064 246.982 30.544V36H245.382ZM254.594 36.128C253.837 36.128 253.144 35.9413 252.514 35.568C251.885 35.1947 251.389 34.6933 251.026 34.064C250.664 33.424 250.482 32.7093 250.482 31.92C250.482 31.1307 250.664 30.4213 251.026 29.792C251.4 29.1627 251.901 28.6613 252.53 28.288C253.16 27.9147 253.858 27.728 254.626 27.728C255.074 27.728 255.506 27.7973 255.922 27.936C256.338 28.0747 256.722 28.2773 257.074 28.544V24.8L258.674 24.496V36H257.09V35.216C256.397 35.824 255.565 36.128 254.594 36.128ZM254.802 34.736C255.272 34.736 255.698 34.6507 256.082 34.48C256.477 34.3093 256.808 34.064 257.074 33.744V30.08C256.808 29.7813 256.477 29.5467 256.082 29.376C255.698 29.1947 255.272 29.104 254.802 29.104C254.29 29.104 253.826 29.2267 253.41 29.472C252.994 29.7173 252.664 30.0533 252.418 30.48C252.173 30.896 252.05 31.3707 252.05 31.904C252.05 32.4373 252.173 32.9173 252.418 33.344C252.664 33.7707 252.994 34.112 253.41 34.368C253.826 34.6133 254.29 34.736 254.802 34.736Z" fill="white"/>
<path d="M354.528 36.176C353.696 36.176 352.923 36.032 352.208 35.744C351.504 35.4453 350.88 35.0347 350.336 34.512C349.803 33.9787 349.387 33.3653 349.088 32.672C348.8 31.968 348.656 31.2107 348.656 30.4C348.656 29.5893 348.8 28.8373 349.088 28.144C349.387 27.44 349.803 26.8267 350.336 26.304C350.88 25.7707 351.509 25.36 352.224 25.072C352.939 24.7733 353.707 24.624 354.528 24.624C355.115 24.624 355.685 24.704 356.24 24.864C356.805 25.0133 357.323 25.232 357.792 25.52C358.272 25.808 358.688 26.1547 359.04 26.56L357.92 27.712C357.504 27.2107 356.997 26.832 356.4 26.576C355.803 26.3093 355.179 26.176 354.528 26.176C353.931 26.176 353.376 26.2827 352.864 26.496C352.363 26.7093 351.925 27.008 351.552 27.392C351.179 27.7653 350.885 28.208 350.672 28.72C350.469 29.232 350.368 29.792 350.368 30.4C350.368 30.9973 350.469 31.552 350.672 32.064C350.885 32.576 351.184 33.024 351.568 33.408C351.952 33.792 352.4 34.0907 352.912 34.304C353.424 34.5173 353.979 34.624 354.576 34.624C355.227 34.624 355.84 34.496 356.416 34.24C357.003 33.9733 357.499 33.6 357.904 33.12L359.008 34.24C358.635 34.6347 358.208 34.9813 357.728 35.28C357.259 35.568 356.747 35.792 356.192 35.952C355.648 36.1013 355.093 36.176 354.528 36.176ZM363.036 36.144C362.449 36.144 361.932 36.0427 361.484 35.84C361.036 35.6267 360.684 35.3333 360.428 34.96C360.172 34.5867 360.044 34.1547 360.044 33.664C360.044 32.896 360.337 32.2933 360.924 31.856C361.51 31.408 362.316 31.184 363.34 31.184C364.14 31.184 364.881 31.3387 365.564 31.648V30.784C365.564 30.1973 365.393 29.76 365.052 29.472C364.721 29.184 364.23 29.04 363.58 29.04C363.206 29.04 362.817 29.0987 362.412 29.216C362.006 29.3227 361.553 29.4933 361.052 29.728L360.46 28.528C361.078 28.24 361.654 28.032 362.188 27.904C362.721 27.7653 363.26 27.696 363.804 27.696C364.86 27.696 365.676 27.9467 366.252 28.448C366.838 28.9493 367.132 29.664 367.132 30.592V36H365.564V35.296C365.201 35.584 364.812 35.7973 364.396 35.936C363.98 36.0747 363.526 36.144 363.036 36.144ZM361.58 33.632C361.58 34.0267 361.745 34.3467 362.076 34.592C362.417 34.8267 362.86 34.944 363.404 34.944C363.83 34.944 364.22 34.8853 364.572 34.768C364.934 34.64 365.265 34.4427 365.564 34.176V32.8C365.254 32.6187 364.929 32.4907 364.588 32.416C364.257 32.3307 363.884 32.288 363.468 32.288C362.881 32.288 362.417 32.4107 362.076 32.656C361.745 32.8907 361.58 33.216 361.58 33.632ZM371.775 36.16C371.071 36.16 370.41 36.0587 369.791 35.856C369.183 35.6427 368.655 35.344 368.207 34.96L369.087 33.904C369.503 34.2347 369.93 34.4907 370.367 34.672C370.815 34.8427 371.269 34.928 371.727 34.928C372.303 34.928 372.773 34.816 373.135 34.592C373.498 34.368 373.679 34.0747 373.679 33.712C373.679 33.4133 373.573 33.1787 373.359 33.008C373.146 32.8373 372.815 32.72 372.367 32.656L370.895 32.448C370.085 32.3307 369.477 32.08 369.071 31.696C368.666 31.312 368.463 30.8 368.463 30.16C368.463 29.6693 368.597 29.2427 368.863 28.88C369.13 28.5067 369.503 28.2187 369.983 28.016C370.463 27.8027 371.023 27.696 371.663 27.696C372.25 27.696 372.815 27.7813 373.359 27.952C373.903 28.1227 374.426 28.3893 374.927 28.752L374.111 29.808C373.663 29.5093 373.226 29.2907 372.799 29.152C372.383 29.0133 371.962 28.944 371.535 28.944C371.045 28.944 370.65 29.0507 370.351 29.264C370.053 29.4667 369.903 29.7333 369.903 30.064C369.903 30.3627 370.005 30.5973 370.207 30.768C370.421 30.928 370.767 31.04 371.247 31.104L372.719 31.312C373.53 31.4293 374.143 31.68 374.559 32.064C374.975 32.4373 375.183 32.944 375.183 33.584C375.183 34.0747 375.034 34.5173 374.735 34.912C374.437 35.296 374.031 35.6 373.519 35.824C373.007 36.048 372.426 36.16 371.775 36.16ZM376.413 36V24.8L378.013 24.448V28.688C378.642 28.0267 379.458 27.696 380.461 27.696C381.09 27.696 381.639 27.8293 382.109 28.096C382.589 28.3627 382.962 28.736 383.229 29.216C383.506 29.696 383.645 30.2507 383.645 30.88V36H382.045V31.152C382.045 30.512 381.863 30.0107 381.501 29.648C381.138 29.2747 380.642 29.088 380.013 29.088C379.586 29.088 379.202 29.1787 378.861 29.36C378.519 29.5413 378.237 29.8027 378.013 30.144V36H376.413ZM385.491 36V27.856H387.091V36H385.491ZM386.291 26.544C386.024 26.544 385.795 26.448 385.603 26.256C385.411 26.0533 385.315 25.8187 385.315 25.552C385.315 25.2747 385.411 25.0453 385.603 24.864C385.795 24.672 386.024 24.576 386.291 24.576C386.568 24.576 386.803 24.672 386.995 24.864C387.187 25.0453 387.283 25.2747 387.283 25.552C387.283 25.8187 387.187 26.0533 386.995 26.256C386.803 26.448 386.568 26.544 386.291 26.544ZM392.879 36.144C392.079 36.144 391.354 35.9573 390.703 35.584C390.063 35.2107 389.551 34.704 389.167 34.064C388.794 33.424 388.607 32.7093 388.607 31.92C388.607 31.1413 388.789 30.4373 389.151 29.808C389.514 29.168 390.005 28.6613 390.623 28.288C391.242 27.904 391.93 27.712 392.687 27.712C393.445 27.712 394.117 27.904 394.703 28.288C395.29 28.6613 395.754 29.1733 396.095 29.824C396.447 30.464 396.623 31.1893 396.623 32V32.448H390.207C390.293 32.896 390.458 33.296 390.703 33.648C390.959 34 391.279 34.2773 391.663 34.48C392.058 34.6827 392.485 34.784 392.943 34.784C393.338 34.784 393.717 34.7253 394.079 34.608C394.453 34.48 394.762 34.2987 395.007 34.064L396.031 35.072C395.551 35.4347 395.055 35.7067 394.543 35.888C394.042 36.0587 393.487 36.144 392.879 36.144ZM390.223 31.248H395.039C394.975 30.8213 394.826 30.448 394.591 30.128C394.367 29.7973 394.085 29.5413 393.743 29.36C393.413 29.168 393.05 29.072 392.655 29.072C392.25 29.072 391.877 29.1627 391.535 29.344C391.194 29.5253 390.906 29.7813 390.671 30.112C390.447 30.432 390.298 30.8107 390.223 31.248ZM398.147 36V27.856H399.747V28.896C400.003 28.512 400.318 28.2133 400.691 28C401.075 27.776 401.507 27.664 401.987 27.664C402.318 27.6747 402.59 27.7227 402.803 27.808V29.248C402.654 29.184 402.499 29.1413 402.339 29.12C402.179 29.088 402.019 29.072 401.859 29.072C401.39 29.072 400.974 29.2 400.611 29.456C400.248 29.7013 399.96 30.064 399.747 30.544V36H398.147Z" fill="white"/>
<defs>
<filter id="filter0_d_856_4234" x="6" y="6" width="116" height="49" filterUnits="userSpaceOnUse" color-interpolation-filters="sRGB">
<feFlood flood-opacity="0" result="BackgroundImageFix"/>
<feColorMatrix in="SourceAlpha" type="matrix" values="0 0 0 0 0 0 0 0 0 0 0 0 0 0 0 0 0 0 127 0" result="hardAlpha"/>
<feOffset/>
<feGaussianBlur stdDeviation="2"/>
<feComposite in2="hardAlpha" operator="out"/>
<feColorMatrix type="matrix" values="0 0 0 0 0 0 0 0 0 0 0 0 0 0 0 0 0 0 0.25 0"/>
<feBlend mode="normal" in2="BackgroundImageFix" result="effect1_dropShadow_856_4234"/>
<feBlend mode="normal" in="SourceGraphic" in2="effect1_dropShadow_856_4234" result="shape"/>
</filter>
<linearGradient id="paint0_linear_856_4234" x1="-1.49802e-06" y1="7.5" x2="126" y2="59.5" gradientUnits="userSpaceOnUse">
<stop offset="0.137005" stop-color="white" stop-opacity="0"/>
<stop offset="0.138609" stop-color="white"/>
<stop offset="0.317308" stop-color="white"/>
<stop offset="0.317408" stop-color="white" stop-opacity="0"/>
<stop offset="0.514423" stop-color="white" stop-opacity="0"/>
<stop offset="0.514523" stop-color="white"/>
<stop offset="0.711538" stop-color="white"/>
<stop offset="0.711638" stop-color="white" stop-opacity="0"/>
</linearGradient>
</defs>
</svg>
